<svg xmlns="http://www.w3.org/2000/svg" xmlns:xlink="http://www.w3.org/1999/xlink" width="1067" height="352" viewBox="0 0 1067 352">
  <defs>
    <clipPath id="clip-logo-netex-horizontal">
      <rect width="1067" height="352"/>
    </clipPath>
  </defs>
  <g id="logo-netex-horizontal" clip-path="url(#clip-logo-netex-horizontal)">
    <g id="logo-netex-horizontal-2" data-name="logo-netex-horizontal" transform="translate(0.22 32.75)">
      <path id="Trazado_1" data-name="Trazado 1" d="M229.711,89.955l-2.439-1.463V85.646A42.031,42.031,0,0,0,196.138,46.22a39.665,39.665,0,0,0-10.73-1.382h-3.414l-.081-.081L180.53,41.83A72.434,72.434,0,0,0,55.017,32.075c-.488.732-.975,1.545-1.463,2.276-.488.813-.894,1.463-1.3,2.195a8.885,8.885,0,0,0-.65,1.219c-.406.732-.813,1.545-1.219,2.276l-.569,1.219-1.057,2.357V43.7l-2.6.488A55.662,55.662,0,0,0,41.929,152.63l143.885,38.532a56.494,56.494,0,0,0,42.759-5.446,54.916,54.916,0,0,0,26.013-33.736,56.047,56.047,0,0,0-24.712-61.944m-10,48.856A33.13,33.13,0,0,1,179.148,161.9L137.365,150.76,91.923,138.567l-31.378-8.454A32.786,32.786,0,0,1,37.377,89.955h0c5.365-20.241,20.973-27.07,34.549-25.281l.081-.163c.163-.406.244-.732.406-1.057,0-.163.081-.244.163-.406l.325-.732c.081-.325.244-.65.325-.894h0c.244-.488.406-.975.65-1.463,0-.081.081-.163.081-.244l.081-.163.406-.894a2.434,2.434,0,0,1,.325-.65l.406-.894.163-.325c0-.081.081-.081.081-.163a3.963,3.963,0,0,0,.244-.569l.406-.813.081-.163.325-.569c.081-.163.163-.244.244-.406.081-.081.081-.244.163-.325h0c.081-.163.244-.406.325-.569A7.149,7.149,0,0,0,77.7,52.4l.569-.894c.975-1.463,1.951-2.926,3.008-4.227a5.259,5.259,0,0,1,.65-.732c.813-.975,1.707-1.951,2.6-2.926l.65-.65a43.181,43.181,0,0,1,6.341-5.2l.732-.488.325-.163.732-.488,1.138-.65a47.651,47.651,0,0,1,5.446-2.6l.65-.244a7.153,7.153,0,0,1,1.219-.406l1.382-.488.813-.244a11.884,11.884,0,0,1,1.626-.406,43.062,43.062,0,0,1,4.471-.813l1.057-.163c.894-.081,1.87-.163,2.764-.244l1.626-.081a48.983,48.983,0,0,1,13.738,1.707c12.519,3.252,22.192,10.243,28.614,20.567a53.615,53.615,0,0,1,4.634,9.755l.325.894.163.406c.081.244.163.406.244.65s.244.732.325,1.057.081.406.163.65.163.569.244.813a5.181,5.181,0,0,0,.163.569c.081.163,0,.163.081.244a22.589,22.589,0,0,1,13.9-.569,26.805,26.805,0,0,1,17.884,15.445,22.1,22.1,0,0,1,.732,14.47c0,.081-.081.244-.081.325.081.081.244.081.325.163,17.721,4.715,27.72,22.843,22.761,41.377" transform="translate(0 0)" fill="#fff"/>
      <path id="Trazado_2" data-name="Trazado 2" d="M182.275,223.5,170,239.839l12.031,4.959L195.363,227Z" transform="translate(-31.66 -41.768)" fill="#fff" opacity="0.5"/>
      <path id="Trazado_3" data-name="Trazado 3" d="M79.9,195.3l1.138,9.348,13.413,5.528L92.988,198.8Z" transform="translate(-14.803 -36.492)" fill="#fff" opacity="0.5"/>
      <path id="Trazado_4" data-name="Trazado 4" d="M131.977,209.5,128.4,223.157l12.194,5.121,4.065-15.364Z" transform="translate(-23.877 -39.149)" fill="#fff" opacity="0.5"/>
      <path id="Trazado_5" data-name="Trazado 5" d="M141.1,266.486l18.534-24.712-12.031-4.959-19.916,26.5c-3.5-.894-6.91-1.788-10.405-2.683l8.779-32.842-12.275-5.121-9.267,34.549c-3.414-.894-6.91-1.87-10.324-2.845l-5.284-41.946L75.5,206.9l5.446,43.735c-10.243-3.008-20.4-6.1-30.647-9.348A71.992,71.992,0,0,0,171.5,273.4C161.343,271.2,151.182,268.925,141.1,266.486Z" transform="translate(-9.265 -38.662)" fill="#fff"/>
      <path id="Trazado_6" data-name="Trazado 6" d="M411.381,76.858h36.906v17.8c0,3.5-.244,7.072-.569,10.568h.569c6.666-13.007,23.574-32.029,54.79-32.029,34.223,0,53.571,17.8,53.571,58.611V230.9H518.523v-91.29c0-18.7-4.877-31.378-24.55-31.378-20.567,0-35.768,13.007-41.458,31.378-2.114,6.341-2.764,13.332-2.764,20.567V230.9H411.3V76.858Z" transform="translate(-76.805 -13.648)" fill="#fff"/>
      <path id="Trazado_7" data-name="Trazado 7" d="M693.252,73c44.791,0,68.853,32.354,68.853,73.081,0,4.552-.894,14.795-.894,14.795H653.989c2.439,26.907,23.493,40.808,46.58,40.808,24.956,0,44.791-16.909,44.791-16.909l14.958,27.476s-23.737,22.03-62.431,22.03c-51.457,0-83.486-36.825-83.486-80.641C614.4,106.248,647,73,693.252,73m29.834,61.618c-.65-20.81-13.738-32.029-30.809-32.029-19.835,0-33.492,12.031-37.15,32.029Z" transform="translate(-114.803 -13.611)" fill="#fff"/>
      <path id="Trazado_8" data-name="Trazado 8" d="M1014.433,73c44.791,0,68.853,32.354,68.853,73.081,0,4.552-.894,14.795-.894,14.795h-107.3c2.439,26.907,23.493,40.808,46.58,40.808,24.956,0,44.791-16.909,44.791-16.909l14.958,27.476s-23.737,22.03-62.431,22.03c-51.457,0-83.486-36.825-83.486-80.641C935.5,106.248,968.1,73,1014.433,73m29.834,61.618c-.65-20.81-13.738-32.029-30.809-32.029-19.835,0-33.492,12.031-37.15,32.029Z" transform="translate(-174.878 -13.611)" fill="#fff"/>
      <path id="Trazado_9" data-name="Trazado 9" d="M828.3,100.263h-20v-32.6h20.892V24.5h37.556V67.665h35.118v32.6h-35.2v60.155c0,25.363,20,29.021,30.647,29.021a40.555,40.555,0,0,0,6.991-.569v33.492a63.985,63.985,0,0,1-11.787.894c-21.542,0-64.22-6.341-64.22-58.042Z" transform="translate(-151.08 -4.537)" fill="#fff"/>
      <path id="Trazado_10" data-name="Trazado 10" d="M1179.257,153.607l-25.363-38.369c-3.008-4.552-5.446-5.121-11.787-5.121H1130.97V77.6h26.907c12.681,0,18.128,2.683,25.038,14.47l15.12,25.363c2.114,3.9,4.877,10,4.877,10h.569s2.683-6.016,4.8-10L1223.4,92.07c6.991-11.787,12.031-14.47,25.119-14.47H1275.1v32.6h-10.893c-6.341,0-8.78.569-11.787,5.121l-25.688,38.369,50.4,77.8h-42.6l-26.907-42.84a51.41,51.41,0,0,1-4.227-8.129h-.569s-2.439,4.8-4.552,8.129l-26.582,42.84h-42.6Z" transform="translate(-211.099 -14.471)" fill="#fff"/>
      <rect id="Rectángulo_1" data-name="Rectángulo 1" width="5.284" height="28.94" transform="translate(334.577 256.52)" fill="#fff"/>
      <path id="Trazado_11" data-name="Trazado 11" d="M427,315.5h5.284l10.974,16.746a47.623,47.623,0,0,1,2.439,4.471h.081s-.325-2.764-.325-4.471V315.5h5.2v28.94h-5.2L434.4,327.775a47.63,47.63,0,0,1-2.439-4.471h-.081s.325,2.764.325,4.471V344.44H427Z" transform="translate(-79.742 -58.98)" fill="#fff"/>
      <path id="Trazado_12" data-name="Trazado 12" d="M465.2,315.5h5.284l10.974,16.746a47.623,47.623,0,0,1,2.439,4.471h.081s-.325-2.764-.325-4.471V315.5h5.284v28.94h-5.284l-10.974-16.665a47.63,47.63,0,0,1-2.439-4.471h-.081s.325,2.764.325,4.471V344.44H465.2Z" transform="translate(-86.889 -58.98)" fill="#fff"/>
      <path id="Trazado_13" data-name="Trazado 13" d="M515.939,314.9a14.7,14.7,0,0,1,15.039,14.307v.488a15.039,15.039,0,0,1-30.078,0A14.641,14.641,0,0,1,515.451,314.9h.488m0,25.119c5.284,0,9.592-4.39,9.592-10.405a9.562,9.562,0,1,0-19.1-.894v.894c-.081,6.016,4.227,10.405,9.511,10.405" transform="translate(-93.568 -58.867)" fill="#fff"/>
      <path id="Trazado_14" data-name="Trazado 14" d="M539.7,315.5h5.69l6.422,18.941a41.513,41.513,0,0,1,1.057,4.227h.081s.569-2.6,1.057-4.227l6.422-18.859h5.609l-10.568,28.94h-5.2Z" transform="translate(-100.827 -58.98)" fill="#fff"/>
      <path id="Trazado_15" data-name="Trazado 15" d="M588.847,337.042H578.685l-2.439,7.4H570.8l10.243-28.94h5.446l10.243,28.94h-5.447Zm-5.121-16.583s-.65,2.845-1.219,4.471l-2.6,7.723h7.641l-2.6-7.723c-.488-1.626-1.057-4.471-1.057-4.471Z" transform="translate(-106.646 -58.98)" fill="#fff"/>
      <path id="Trazado_16" data-name="Trazado 16" d="M610.492,319.971H600.9V315.5h24.387v4.471h-9.592V344.44h-5.2Z" transform="translate(-112.277 -58.98)" fill="#fff"/>
      <rect id="Rectángulo_2" data-name="Rectángulo 2" width="5.284" height="28.94" transform="translate(516.831 256.52)" fill="#fff"/>
      <path id="Trazado_17" data-name="Trazado 17" d="M646.6,315.5h5.69l6.341,18.941a41.513,41.513,0,0,1,1.057,4.227h.081s.569-2.6,1.057-4.227l6.422-18.859h5.609l-10.568,28.94h-5.2Z" transform="translate(-120.827 -58.98)" fill="#fff"/>
      <path id="Trazado_18" data-name="Trazado 18" d="M683.5,315.5h17.4v4.471H688.784v7.641h9.836v4.552h-9.836v7.723h12.763v4.552H683.5Z" transform="translate(-127.731 -58.98)" fill="#fff"/>
      <path id="Trazado_19" data-name="Trazado 19" d="M724.7,315.5h5.284v24.387H742.5v4.552H724.7Z" transform="translate(-135.439 -58.98)" fill="#fff"/>
      <path id="Trazado_20" data-name="Trazado 20" d="M751.8,315.5h17.4v4.471H757.084v7.641h9.755v4.552h-9.755v7.723h12.763v4.552H751.8Z" transform="translate(-140.509 -58.98)" fill="#fff"/>
      <path id="Trazado_21" data-name="Trazado 21" d="M794.347,337.042H784.185l-2.439,7.4H776.3l10.243-28.94h5.447l10.243,28.94h-5.447Zm-5.121-16.583s-.65,2.845-1.219,4.471l-2.6,7.723h7.641l-2.6-7.723a43.528,43.528,0,0,1-1.138-4.471Z" transform="translate(-145.093 -58.98)" fill="#fff"/>
      <path id="Trazado_22" data-name="Trazado 22" d="M812.8,315.5h9.349c3.17,0,4.552.244,5.853.813a8.01,8.01,0,0,1,4.715,7.885,8.192,8.192,0,0,1-4.878,7.885v.081a4.613,4.613,0,0,1,.976,1.463l5.934,10.812H828.9l-5.772-10.812h-5.04V344.44H812.8Zm10,13.576a4.1,4.1,0,0,0,4.552-3.821v-.732c0-2.764-1.219-4.471-5.365-4.471H818v9.023Z" transform="translate(-151.922 -58.98)" fill="#fff"/>
      <path id="Trazado_23" data-name="Trazado 23" d="M845.9,315.5h5.284l10.974,16.746a47.637,47.637,0,0,1,2.439,4.471h.163s-.325-2.764-.325-4.471V315.5h5.2v28.94h-5.284l-10.974-16.665a47.637,47.637,0,0,1-2.439-4.471h-.081s.325,2.764.325,4.471V344.44H845.9V315.5Z" transform="translate(-158.114 -58.98)" fill="#fff"/>
      <rect id="Rectángulo_3" data-name="Rectángulo 3" width="5.284" height="28.94" transform="translate(718.92 256.52)" fill="#fff"/>
      <path id="Trazado_24" data-name="Trazado 24" d="M899.7,315.5h5.284l10.974,16.746a47.637,47.637,0,0,1,2.439,4.471h.081s-.325-2.764-.325-4.471V315.5h5.2v28.94h-5.2l-10.974-16.665a47.637,47.637,0,0,1-2.439-4.471h-.081s.325,2.764.325,4.471V344.44H899.7Z" transform="translate(-168.18 -58.98)" fill="#fff"/>
      <path id="Trazado_25" data-name="Trazado 25" d="M950.538,314.9c7.072,0,10.812,3.658,10.812,3.658l-2.6,3.9a12.142,12.142,0,0,0-7.723-2.764c-6.5,0-10,4.471-10,10,0,6.259,4.308,10.405,9.755,10.405a11.326,11.326,0,0,0,7.316-3.008v-3.414h-4.471v-4.552h9.1v15.283h-4.552v-2.6h0a12.5,12.5,0,0,1-8.454,3.089c-7.641,0-14.226-5.934-14.226-15.039A14.679,14.679,0,0,1,949.806,314.9h.732" transform="translate(-174.877 -58.868)" fill="#fff"/>
      <path id="Trazado_26" data-name="Trazado 26" d="M988.4,315.5h17.4v4.471H993.684v7.641h9.755v4.552h-9.755v7.723h12.763v4.552H988.4Z" transform="translate(-184.775 -58.98)" fill="#fff"/>
      <path id="Trazado_27" data-name="Trazado 27" d="M1022.761,329.726l-8.7-14.226h6.016l3.983,7.072c.976,1.707,1.87,3.577,1.87,3.577h.081s.813-1.87,1.788-3.577l4.064-7.072h6.1l-8.78,14.226,9.1,14.714h-5.934l-4.471-7.8c-.975-1.626-1.788-3.414-1.788-3.414h-.081s-.813,1.788-1.788,3.414l-4.471,7.8H1013.9Z" transform="translate(-189.546 -58.98)" fill="#fff"/>
      <path id="Trazado_28" data-name="Trazado 28" d="M1049.2,315.5h11.218c5.446,0,9.267,3.821,9.267,9.43s-3.821,9.592-9.267,9.592h-5.934v10H1049.2Zm10.243,14.388c3.089,0,4.877-1.951,4.877-4.959a4.527,4.527,0,0,0-4.064-4.877h-5.772v9.836Z" transform="translate(-196.15 -58.98)" fill="#fff"/>
      <path id="Trazado_29" data-name="Trazado 29" d="M1080.1,315.5h17.4v4.471h-12.112v7.641h9.755v4.552h-9.755v7.723h12.763v4.552H1080.1Z" transform="translate(-201.931 -58.98)" fill="#fff"/>
      <path id="Trazado_30" data-name="Trazado 30" d="M1108.981,315.5h9.349c3.17,0,4.552.244,5.853.813a8.01,8.01,0,0,1,4.715,7.885,8.142,8.142,0,0,1-4.959,7.885v.081a4.615,4.615,0,0,1,.975,1.463l5.934,10.812H1125l-5.772-10.812h-5.04V344.44H1108.9V315.5Zm10,13.576a4.141,4.141,0,0,0,4.552-3.821v-.732c0-2.764-1.219-4.471-5.284-4.471h-3.983v9.023Z" transform="translate(-207.319 -58.98)" fill="#fff"/>
      <rect id="Rectángulo_4" data-name="Rectángulo 4" width="5.284" height="28.94" transform="translate(928.569 256.52)" fill="#fff"/>
      <path id="Trazado_31" data-name="Trazado 31" d="M1157.7,315.5h17.4v4.471h-12.112v7.641h9.755v4.552h-9.755v7.723h12.763v4.552H1157.7Z" transform="translate(-216.449 -58.98)" fill="#fff"/>
      <path id="Trazado_32" data-name="Trazado 32" d="M1186.6,315.5h5.284l10.974,16.746a47.652,47.652,0,0,1,2.439,4.471h.081s-.325-2.764-.325-4.471V315.5h5.2v28.94h-5.2l-10.974-16.665a47.6,47.6,0,0,1-2.439-4.471h-.081s.325,2.764.325,4.471V344.44H1186.6Z" transform="translate(-221.856 -58.98)" fill="#fff"/>
      <path id="Trazado_33" data-name="Trazado 33" d="M1237.357,314.9a14.957,14.957,0,0,1,10.73,3.983l-2.52,3.9a12.958,12.958,0,0,0-7.967-3.089c-6.1,0-9.755,4.552-9.755,10s3.74,10.405,9.755,10.405a12.756,12.756,0,0,0,8.454-3.658l2.764,3.821a15.856,15.856,0,0,1-11.381,4.715c-8.861,0-15.039-6.585-15.039-15.12a14.608,14.608,0,0,1,14.307-14.876,1.791,1.791,0,0,1,.65-.081" transform="translate(-228.553 -58.865)" fill="#fff"/>
      <path id="Trazado_34" data-name="Trazado 34" d="M1260.9,315.5h17.4v4.471h-12.112v7.641h9.755v4.552h-9.755v7.723h12.763v4.552H1260.9Z" transform="translate(-235.757 -58.98)" fill="#fff"/>
      <path id="Trazado_35" data-name="Trazado 35" d="M1289.964,336.929a11.907,11.907,0,0,0,7.235,3.089c2.195,0,4.227-1.057,4.227-3.5,0-5.2-13.657-4.308-13.657-13.169,0-4.8,4.146-8.454,9.755-8.454a12.711,12.711,0,0,1,8.7,3.089l-2.276,4.308a10.4,10.4,0,0,0-6.422-2.52c-2.439,0-4.39,1.463-4.39,3.5,0,5.121,13.657,3.9,13.657,13.169,0,4.634-3.5,8.454-9.592,8.454a13.934,13.934,0,0,1-10-3.983Z" transform="translate(-240.677 -58.867)" fill="#fff"/>
    </g>
  </g>
</svg>
