<?xml version="1.0" encoding="utf-8"?>
<!-- Generator: Adobe Illustrator 23.1.0, SVG Export Plug-In . SVG Version: 6.00 Build 0)  -->
<svg version="1.1" id="Capa_1" xmlns="http://www.w3.org/2000/svg" xmlns:xlink="http://www.w3.org/1999/xlink" x="0px" y="0px"
	 viewBox="0 0 220 220" style="enable-background:new 0 0 220 220;" xml:space="preserve">
<style type="text/css">
	.st0{fill-rule:evenodd;clip-rule:evenodd;fill:#7B83EB;}
	.st1{fill-opacity:9.803900e-02;}
	.st2{fill-opacity:0.2;}
	.st3{fill-rule:evenodd;clip-rule:evenodd;fill:#5059C9;}
	.st4{fill:#5059C9;}
	.st5{fill:#7B83EB;}
	.st6{fill:#4B53BC;}
	.st7{fill:#FFFFFF;}
	.st8{fill:none;}
</style>
<g>
	<circle class="st0" cx="116.9" cy="41.3" r="32.1"/>
	<path class="st1" d="M114.6,48.1H85.5l0.1,0.6l0,0.1l0.1,0.6c4.4,16.5,21.2,26.8,37.9,23.2V57.3C123.7,52.3,119.6,48.1,114.6,48.1
		L114.6,48.1z"/>
	<path class="st2" d="M107.7,55H87.9c5.3,11.2,16.6,18.3,29,18.3v-9.2C116.9,59.1,112.7,55,107.7,55L107.7,55z"/>
	<circle class="st3" cx="189.1" cy="51.6" r="24.1"/>
	<g>
		<path class="st4" d="M209.7,82.5h-54c-2.4,0-4.4,2-4.4,4.4v55.8c-0.3,16.6,11.1,31.2,27.3,35c2.3,0.5,4.7,0.7,7.1,0.7
			c18.9,0,34.4-15.5,34.4-34.4V92.8C220,87.2,215.3,82.5,209.7,82.5L209.7,82.5z"/>
		<path class="st5" d="M171.9,92.8v65.3c0,30.2-24.8,55-55,55c-19.6,0-37.8-10.5-47.6-27.5c-1.3-2.2-2.5-4.5-3.4-6.9
			c-0.9-2.2-1.7-4.5-2.3-6.9c-1.1-4.5-1.7-9.1-1.7-13.8V92.8c0,0,0,0,0,0c0-5.6,4.6-10.3,10.3-10.3h89.4
			C167.2,82.5,171.9,87.1,171.9,92.8L171.9,92.8z"/>
		<path class="st2" d="M107.7,55H87.9c5.3,11.2,16.6,18.3,29,18.3v-9.2C116.9,59.1,112.7,55,107.7,55L107.7,55z"/>
		<path class="st1" d="M123.8,82.5v87.1c0,4.3-3,8-7.1,8.9c-0.6,0.2-1.3,0.3-2,0.3H65.9c-0.9-2.2-1.7-4.5-2.3-6.9
			c-1.1-4.5-1.7-9.1-1.7-13.8V92.8c0,0,0,0,0,0c0-5.6,4.6-10.3,10.3-10.3H123.8z"/>
		<path class="st2" d="M116.9,82.5v94c0,0.7-0.1,1.3-0.3,2c-0.9,4.2-4.6,7.1-8.9,7.1H69.3c-1.3-2.2-2.5-4.5-3.4-6.9
			c-0.9-2.2-1.7-4.5-2.3-6.9c-1.1-4.5-1.7-9.1-1.7-13.8V92.8c0,0,0,0,0,0c0-5.6,4.6-10.3,10.3-10.3H116.9z M116.9,82.5v80.2
			c0,5-4.1,9.1-9.1,9.1H63.6c-1.1-4.5-1.7-9.1-1.7-13.8V92.8c0,0,0,0,0,0c0-5.6,4.6-10.3,10.3-10.3H116.9z M72.2,82.5
			C72.2,82.5,72.2,82.5,72.2,82.5c-5.7,0-10.3,4.6-10.3,10.3v65.3c0,4.6,0.6,9.3,1.7,13.8h37.3c5,0,9.1-4.1,9.1-9.1V82.5H72.2z"/>
		<path class="st6" d="M9.2,55h91.7c5,0,9.2,4.1,9.2,9.2v91.7c0,5-4.1,9.2-9.2,9.2H9.2c-5,0-9.2-4.1-9.2-9.2V64.2
			C0,59.1,4.1,55,9.2,55z"/>
		<path class="st7" d="M82.4,89.2H61.8v55.1H48.3V89.2H27.6V75.7h54.7V89.2z"/>
	</g>
	<path class="st8" d="M0,0h220v220H0V0z"/>
</g>
</svg>
