<svg id="Grupo_14635" data-name="Grupo 14635" xmlns="http://www.w3.org/2000/svg" width="31.286" height="22.905" viewBox="0 0 31.286 22.905">
  <g id="Grupo_14723" data-name="Grupo 14723" transform="translate(0 0)">
    <path id="Trazado_10488" data-name="Trazado 10488" d="M1625.248,443.588a14.131,14.131,0,0,0,7.233,1.952,14.963,14.963,0,0,0,7.37-1.952,26.428,26.428,0,0,0-7.37-1.376A24.875,24.875,0,0,0,1625.248,443.588Z" transform="translate(-1609.703 -425.357)" fill="#b2a000" stroke="rgba(0,0,0,0)" stroke-miterlimit="10" stroke-width="1" opacity="0.63"/>
    <path id="Trazado_6455" data-name="Trazado 6455" d="M1692.009,438.433a1.605,1.605,0,1,1-1.605-1.605A1.606,1.606,0,0,1,1692.009,438.433Z" transform="translate(-1667.695 -420.445)" fill="#fff"/>
    <path id="Unión_2" data-name="Unión 2" d="M7.26,14.442A45.455,45.455,0,0,0,.026,15.489a8.2,8.2,0,0,1,.328-3.068,6.407,6.407,0,0,1,1.32-1.6c.811-3.194.394-7.388,4.045-8.274a1.735,1.735,0,1,1,3.071-.006c3.688.877,3.3,5.129,4.121,8.354A11.644,11.644,0,0,1,14.2,12.4a10.056,10.056,0,0,1,.428,3.161A42.781,42.781,0,0,0,7.26,14.442ZM8.2,2.436a1.061,1.061,0,1,0-1.843,0,7.442,7.442,0,0,1,.915-.054A7.339,7.339,0,0,1,8.2,2.436Z" transform="translate(15.518 2.741)" fill="#fc0" stroke="rgba(0,0,0,0)" stroke-miterlimit="10" stroke-width="1"/>
    <path id="Trazado_10503" data-name="Trazado 10503" d="M36.823-1H21.094a.625.625,0,0,0-.625.624v1.9h-.653a.852.852,0,1,0,0,1.7h.653V5.564h-.653a.852.852,0,0,0,0,1.7h.653V9.6h-.653a.852.852,0,0,0,0,1.7h.653v2.333h-.653a.852.852,0,0,0,0,1.7h.653v2.333h-.653a.852.852,0,1,0,0,1.7h.653v1.9a.625.625,0,0,0,.625.624H36.823A1.667,1.667,0,0,0,38.49,20.24V.669A1.667,1.667,0,0,0,36.823-1Z" transform="translate(-18.963 0.998)" fill="#f55931"/>
    <text id="A" transform="translate(4.783 16)" fill="#fff" font-size="16" font-family="Lato-Bold, Lato" font-weight="700"><tspan x="0" y="0">A</tspan></text>
  </g>
</svg>
