<svg xmlns="http://www.w3.org/2000/svg" viewBox="0 0 868.879 449.283">
    <defs>
        <style>
            .cls-1{fill:#1aa9e2;opacity:.203}.cls-2{fill:#c7e9f7}.cls-10,.cls-25,.cls-26,.cls-3,.cls-48,.cls-6{fill:none}.cls-10,.cls-3{stroke:#fff}.cls-10,.cls-3,.cls-48,.cls-6{stroke-miterlimit:10}.cls-3{stroke-width:2px}.cls-4{fill:#c2dfeb}.cls-5{fill:#d1dbea}.cls-6{stroke:#b0bfde;stroke-width:1.393px}.cls-7{fill:#0c1153}.cls-8{fill:#b0bfde}.cls-9{fill:#a3d3e6}.cls-10{stroke-width:1.408px}.cls-11{fill:#e4efff}.cls-12{fill:#d8e5ed}.cls-13{fill:#ff3d0d}.cls-14{fill:#ffc40e}.cls-15{fill:#9fc400}.cls-16{fill:#f8b02f}.cls-17,.cls-18,.cls-19{fill:#fff}.cls-18{opacity:.3}.cls-19,.cls-20{opacity:.4}.cls-21{opacity:.1}.cls-22{fill:#2a1b13}.cls-23{fill:#f05060}.cls-24{fill:#b5d1de}.cls-25,.cls-26{stroke:#d8e5ed}.cls-25{stroke-width:5.22px}.cls-26{stroke-width:6.071px}.cls-27{fill:#4e99ff}.cls-28{fill:#2b83fd}.cls-29{fill:#ecb60d}.cls-30{fill:#c4d1e1}.cls-31{fill:#e4eef3}.cls-32{fill:#e9d6b8}.cls-33{fill:#163f59}.cls-34{fill:#194866}.cls-35{fill:#282723}.cls-36{fill:#b6c2c9}.cls-37{fill:#879ba6}.cls-38{fill:#323b31}.cls-39{fill:#3c463b}.cls-40{fill:#181863}.cls-41{fill:#e2c59c}.cls-42{fill:#f3aa06}.cls-43{fill:#fece40}.cls-44{fill:#d1320b}.cls-45{fill:#cdd5d7}.cls-46{fill:#161711}.cls-47{fill:#93b500}.cls-48{stroke:#194866}.cls-49{fill:#593446}.cls-50{fill:#081832}.cls-51{fill:#5fb4c9}.cls-52{fill:#f4da80}
        </style>
    </defs>
    <g id="Group_13937" data-name="Group 13937" transform="translate(-.045 -.051)">
        <path id="Path_6933" d="M561.3 321.7c-114.7 7.1-303.5 6.1-364.4 5.5C-16.1 325.1-10 366 8.2 373.6c20.7 8.7 65.3 28 162.5 40.5s297.9 41 495.5 34.2c225.1-7.7 134.2-66.4 166.3-75.1 114.4-31.1-58.5-64.6-271.2-51.5z" class="cls-1" data-name="Path 6933"/>
        <g id="Group_13866" data-name="Group 13866">
            <path id="Path_6934" d="M786 234.4a109.041 109.041 0 0 0-96.7 31.3 108.707 108.707 0 0 0 177 31 108.986 108.986 0 0 0-80.3-62.3z" class="cls-2" data-name="Path 6934"/>
            <g id="Group_13865" data-name="Group 13865">
                <path id="Line_2016" d="M156.3 27.3L0 0" class="cls-3" data-name="Line 2016" transform="translate(696.2 266.4)"/>
                <path id="Line_2017" d="M0 0l13.9 23" class="cls-3" data-name="Line 2017" transform="translate(820.2 288.3)"/>
                <path id="Line_2018" d="M0 0l17 28.5" class="cls-3" data-name="Line 2018" transform="translate(793.6 283.6)"/>
                <path id="Line_2019" d="M0 0l28.6 47.6" class="cls-3" data-name="Line 2019" transform="translate(766.9 278.9)"/>
                <path id="Line_2020" d="M0 0l27.7 46.3" class="cls-3" data-name="Line 2020" transform="translate(740.3 274.3)"/>
                <path id="Line_2021" d="M0 0l15.5 25.8" class="cls-3" data-name="Line 2021" transform="translate(713.6 269.6)"/>
                <path id="Line_2022" d="M0 17.1L20.9 0" class="cls-3" data-name="Line 2022" transform="translate(823.5 271.3)"/>
                <path id="Line_2023" d="M0 26.5L32.5 0" class="cls-3" data-name="Line 2023" transform="translate(796.9 257.2)"/>
                <path id="Line_2024" d="M0 33.2L40.7 0" class="cls-3" data-name="Line 2024" transform="translate(770.2 245.8)"/>
                <path id="Line_2025" d="M0 34.1L41.8 0" class="cls-3" data-name="Line 2025" transform="translate(743.6 240.3)"/>
                <path id="Line_2026" d="M0 29.3L35.9 0" class="cls-3" data-name="Line 2026" transform="translate(716.9 240.4)"/>
            </g>
        </g>
        <path id="Path_6935" d="M416.7 250.1c-29.1-15.7-6.9-22.6 19.7-23.5-13.4-11.7-5.8-23.7 25.6-38.1 14.1-6.5 31.6-3.8 48.9 3.1 12.4-24.5 29.6-41.6 50.4-33.5 17.2 6.7 30.2 15 38.3 24.2q7.8-3.3 16.8-6.3c13.1-4.3 23-1.8 30.2 4.8 25.4-15.3 51.3-24.8 67-15.5 27.4 16.1 31.5 30.5 14.5 45.7 26.7-.2 47 7.1 12.9 28 31.5-4.5 54.2-2.3 41.3 16.1-28.7 41.1-170.2 53.6-276.8 39.7-66.9-.6-123-9.9-134.4-29.7-8.2-14.5 15.1-17.3 45.6-15z" class="cls-4" data-name="Path 6935"/>
        <g id="Group_13869" data-name="Group 13869">
            <g id="Group_13867" data-name="Group 13867">
                <path id="Path_6936" d="M770.5 208s-1.5-7.5 2.1-13.8c1.3-2.3 5.4-5.2 7.8-3.8 2.4 1.3 2.7 5.3.8 8.6-3.6 6.3-10.7 9-10.7 9z" class="cls-5" data-name="Path 6936"/>
                <path id="Path_6937" d="M765.4 218.9s4-5.4 10.1-6.8c2.2-.5 6.4.6 7 2.9.5 2.4-1.8 4.9-5 5.6-6.2 1.5-12.1-1.7-12.1-1.7z" class="cls-5" data-name="Path 6937"/>
                <path id="Path_6938" d="M757.1 230.3s5.8-3.3 11.9-2.1c2.2.4 5.7 3.1 5.2 5.5s-3.7 3.7-6.9 3.1c-6.1-1.2-10.2-6.5-10.2-6.5z" class="cls-5" data-name="Path 6938"/>
                <path id="Path_6939" d="M765.1 219.1a21.819 21.819 0 0 1-8-8.7c-1-2-1.2-6.3.6-7.1s4.5 1.1 5.9 4.1a21.828 21.828 0 0 1 1.5 11.7z" class="cls-5" data-name="Path 6939"/>
                <path id="Path_6940" d="M757.8 230.8a20.992 20.992 0 0 1-8.2-8.6c-1-2-1.1-6.3.8-7.2s4.7 1 6 4a20.575 20.575 0 0 1 1.4 11.8z" class="cls-5" data-name="Path 6940"/>
                <path id="Path_6941" d="M745.1 244.8s-5.1-1.9-7.1-6.2c-.7-1.6-.5-5 1.4-5.9s4.4.4 5.4 2.7c2.1 4.3.3 9.4.3 9.4z" class="cls-5" data-name="Path 6941"/>
                <path id="Path_6942" d="M745.7 245.3a17.434 17.434 0 0 1 9.3-2.7c1.8.1 4.9 1.7 4.8 3.4s-2.5 3-5.1 2.9a17.06 17.06 0 0 1-9-3.6z" class="cls-5" data-name="Path 6942"/>
            </g>
            <g id="Group_13868" data-name="Group 13868">
                <path id="Path_6943" d="M707.1 311.3a8.812 8.812 0 0 0 2.1 1.8l.5-1.1-.3.6.3-.6c-.1-.1-2.7-1.3-3.4-5.6-.8-4.8 1-11.1 5.3-18.9 5.9-10.7 16.5-23.9 31.5-39.1 17.4-17.7 23.1-29.9 27-38a51.251 51.251 0 0 1 2.7-5.3l-1.1-.6c-.9 1.5-1.7 3.3-2.7 5.4-3.8 8-9.5 20.1-26.7 37.6-33.3 33.8-38.6 50.9-37.1 59.2a8.542 8.542 0 0 0 1.9 4.6z" class="cls-5" data-name="Path 6943"/>
            </g>
        </g>
        <g id="Group_13871" data-name="Group 13871">
            <path id="Path_6944" d="M712.3 208.5a109.048 109.048 0 0 0-28.2 97.6 108.613 108.613 0 0 0 124.7-129.2 108.493 108.493 0 0 0-96.5 31.6z" class="cls-2" data-name="Path 6944"/>
            <g id="Group_13870" data-name="Group 13870">
                <path id="Line_2027" d="M110.2 0L0 114.2" class="cls-3" data-name="Line 2027" transform="translate(688.4 186.6)"/>
                <path id="Line_2028" d="M0 0l26.9 1.4" class="cls-3" data-name="Line 2028" transform="translate(776 210.3)"/>
                <path id="Line_2029" d="M0 0l33.2 1.7" class="cls-3" data-name="Line 2029" transform="translate(757.2 229.8)"/>
                <path id="Line_2030" d="M0 0l55.3 3" class="cls-3" data-name="Line 2030" transform="translate(738.5 249.2)"/>
                <path id="Line_2031" d="M0 0l53.9 2.9" class="cls-3" data-name="Line 2031" transform="translate(719.7 268.7)"/>
                <path id="Line_2032" d="M0 0l30 1.7" class="cls-3" data-name="Line 2032" transform="translate(700.9 288.1)"/>
                <path id="Line_2033" d="M2.4 26.8L0 0" class="cls-3" data-name="Line 2033" transform="translate(775.5 180.8)"/>
                <path id="Line_2034" d="M3.8 41.8L0 0" class="cls-3" data-name="Line 2034" transform="translate(755.4 185.3)"/>
                <path id="Line_2035" d="M4.7 52.3L0 0" class="cls-3" data-name="Line 2035" transform="translate(735.7 194.2)"/>
                <path id="Line_2036" d="M4.8 53.7L0 0" class="cls-3" data-name="Line 2036" transform="translate(716.8 212.3)"/>
                <path id="Line_2037" d="M4.1 46.2L0 0" class="cls-3" data-name="Line 2037" transform="translate(698.7 239.3)"/>
            </g>
        </g>
        <g id="Group_13873" data-name="Group 13873">
            <path id="Path_6945" d="M759.3 320.2c16.3-1.8 56.6-16.3 42.6-30.8-13.9-14.5-46.5-3.6-62.2 0 36.9-17.9 79.9-43 40.6-45.9-12.2-.9-31.1 5-52 14.3 23.4-19 36.2-34.6 22.1-37.5-13.1-2.7-39.9 12.8-68.5 33.3 16.3-17.2 25.7-32.2 18.4-39.3-6-5.8-18.7.9-33.3 13.1.7-10.8-3.9-17.3-14.3-16-9.7 1.2-17.6 13.7-23.3 28.8-9.4-23.3-34.1-37.5-59-30.4-29.3 8.3-5.8 64.1 7.3 90.6z" class="cls-4" data-name="Path 6945"/>
            <g id="Group_13872" data-name="Group 13872">
                <path id="Path_6946" d="M764.4 134.6s-53.5 38.4-96.2 146.6" class="cls-6" data-name="Path 6946"/>
                <path id="Path_6947" d="M711.6 148.7s-38.3 53.5-49.5 119.7" class="cls-6" data-name="Path 6947"/>
                <path id="Path_6948" d="M743 201.5s-46 14.7-56.5 75.3" class="cls-6" data-name="Path 6948"/>
                <path id="Path_6949" d="M771.3 126.4c8.5 7.2 13.1 15.8 10.2 19.3s-12.2.4-20.7-6.7c-8.5-7.2-13.1-15.8-10.2-19.3s12.2-.5 20.7 6.7z" class="cls-4" data-name="Path 6949"/>
                <path id="Path_6950" d="M767.7 130.6c2.7 2.3 4.2 5 3.2 6.1-.9 1.1-3.9.1-6.6-2.1-2.7-2.3-4.2-5-3.2-6.1s3.9-.1 6.6 2.1z" class="cls-7" data-name="Path 6950"/>
                <path id="Path_6951" d="M714.5 145.3c3.6 3 5.5 6.6 4.2 8-1.2 1.4-5.1.2-8.6-2.8-3.6-3-5.5-6.6-4.2-8 1.2-1.4 5.1-.2 8.6 2.8z" class="cls-4" data-name="Path 6951"/>
                <path id="Path_6952" d="M713 147.1c1.1.9 1.7 2.1 1.3 2.5-.4.5-1.6.1-2.7-.9-1.1-.9-1.7-2.1-1.3-2.5.4-.5 1.6-.1 2.7.9z" class="cls-7" data-name="Path 6952"/>
                <path id="Path_6953" d="M746.6 199c3.4 4.9 4.6 10 2.6 11.4s-6.4-1.5-9.8-6.4-4.6-10-2.6-11.4 6.3 1.5 9.8 6.4z" class="cls-8" data-name="Path 6953"/>
                <path id="Path_6954" d="M744.1 200.7c1.1 1.6 1.5 3.2.8 3.6-.6.4-2-.5-3.1-2-1.1-1.6-1.5-3.2-.8-3.6.6-.5 2 .4 3.1 2z" class="cls-7" data-name="Path 6954"/>
            </g>
        </g>
        <path id="Path_6955" d="M826.9 353.5c3.2-5.9-.6-11.3-15.3-14.8-16.1-3.8-31.5-2.5-44.3.6 30.2-17 65.6-41.2 33.8-45.8-9.9-1.4-25.3 4-42.4 12.7 19.3-18.7 30-34.4 18.6-37.9-10.6-3.3-32.6 11.6-56.1 31.7 13.5-17.1 21.4-32.3 15.6-39.9-4.7-6.2-15.1.1-27.2 12.3.7-11.1-2.8-18.1-11.3-17.1-7.9.9-14.6 13.5-19.4 28.8-7.1-24.4-26.9-40.1-47.2-33.8-23.9 7.4-5.9 66 4.3 93.9z" class="cls-9" data-name="Path 6955"/>
        <g id="Group_13880" data-name="Group 13880">
            <g id="Group_13876" data-name="Group 13876">
                <g id="Group_13874" data-name="Group 13874">
                    <path id="Path_6956" d="M118.5 155.9s-5.3-2.4-7.7-7.4c-.9-1.8-.8-5.7 1-6.6 1.9-.9 4.5.7 5.8 3.3 2.3 5 .9 10.7.9 10.7z" class="cls-2" data-name="Path 6956"/>
                    <path id="Path_6957" d="M123 163.9s-1.6-4.9.2-9.3c.7-1.6 3.2-3.8 4.9-3.1s2.3 3.3 1.3 5.7c-1.8 4.4-6.4 6.7-6.4 6.7z" class="cls-2" data-name="Path 6957"/>
                    <path id="Path_6958" d="M126.5 174.2a14.827 14.827 0 0 1 4-8.4c1.3-1.2 4.5-2.1 5.7-.8 1.3 1.4.7 4-1.1 5.7a15.615 15.615 0 0 1-8.6 3.5z" class="cls-2" data-name="Path 6958"/>
                    <path id="Path_6959" d="M123 164.2a17.034 17.034 0 0 1-9 1.2c-1.7-.3-4.4-2.1-4.2-3.5.3-1.5 2.7-2.3 5.1-1.9a16.2 16.2 0 0 1 8.1 4.2z" class="cls-2" data-name="Path 6959"/>
                    <path id="Path_6960" d="M127.1 173.9a15.57 15.57 0 0 1-9 1.3c-1.7-.3-4.4-2.1-4.1-3.7s2.7-2.5 5.2-2a16.564 16.564 0 0 1 7.9 4.4z" class="cls-2" data-name="Path 6960"/>
                    <path id="Path_6961" d="M130.2 188.1s-3.4 2.3-7 1.7c-1.3-.2-3.3-1.9-3-3.5s2.2-2.6 4.1-2.2c3.5.6 5.9 4 5.9 4z" class="cls-2" data-name="Path 6961"/>
                    <path id="Path_6962" d="M130.8 187.9a13.467 13.467 0 0 1 2.4-7c.9-1.1 3.2-2.4 4.3-1.5 1 .8.8 2.9-.5 4.5a12.275 12.275 0 0 1-6.2 4z" class="cls-2" data-name="Path 6962"/>
                </g>
                <g id="Group_13875" data-name="Group 13875">
                    <path id="Path_6963" d="M155 241.4a5.99 5.99 0 0 0 2-.5l-.5-.8.2.4-.2-.4a5.812 5.812 0 0 1-5-.3c-3.3-1.6-6.5-5.5-9.5-11.7-4.1-8.5-7.6-20.9-10.5-37-3.3-18.7-8.4-27.7-11.8-33.7a40.148 40.148 0 0 1-2.1-4l-.9.4a34.122 34.122 0 0 0 2.2 4.1c3.3 5.9 8.4 14.8 11.7 33.4 6.4 35.9 14.7 46.7 20.6 49.5a11.794 11.794 0 0 0 3.8.6z" class="cls-2" data-name="Path 6963"/>
                </g>
            </g>
            <path id="Path_6964" d="M235 316.4c9.4-4.5-75.2-58.5-94-43.2-25.6 20.8 9 33 38.3 36.6 29.3 3.5-35.4-11.5-43.2-13.1-27-5.5-48.4 28.4-3 28s1.8-10-19-7.9-61.3 16.9-13.4 20.6c47.9 3.8 68.5-4.9 55.2-7S48 337.2 71.4 351.2c23.4 14.1 107.6-7.9 163.6-34.8z" class="cls-9" data-name="Path 6964"/>
            <path id="Path_6965" d="M49.4 316.3c-3.7-6.8.6-13 17.5-16.9 18.4-4.4 36.1-2.9 50.7.7-34.6-19.5-75-47.2-38.7-52.4 11.3-1.6 28.9 4.5 48.6 14.5-22.1-21.4-34.3-39.3-21.3-43.4 12.1-3.8 37.3 13.3 64.2 36.3-15.4-19.6-24.5-36.9-17.9-45.6 5.4-7.1 17.3.2 31.2 14-.8-12.7 3.2-20.7 12.9-19.6 9.1 1 16.7 15.4 22.2 32.9 8.2-28 30.8-45.9 54.1-38.7 27.3 8.5 6.7 75.5-4.9 107.5z" class="cls-9" data-name="Path 6965"/>
            <g id="Group_13877" data-name="Group 13877">
                <path id="Path_6966" d="M210.6 331.1c.5-3.4-1.4-31.7 15.6-43 13.5-9 7.7-14.9 1.1-17.8-6.6-3-14.2-2.8-11.1-11.4 10.3-28.2-.1-56.2-14.4-41.7-7.8 7.8-16.1-2.8-13.6-10 5.2-15.3 1.7-27.9-8.9-22.3-10.4 5.5-18.1 4.5-18.3-2.6s6.5-19.4-7.1-21c-5.4-.6-14.8 9.2-14.6 20.4.1 6.4 5.8 25.8-8.8 18.8-15-7.2-15 6.3-8.7 13 2.4 2.5 22.3 27.1 11.9 26.5-12.3-.7-13.7 10-.9 19.2 5.8 4.2 21.2 9.4 17.3 14.1-4 4.7-8 12.6 1.1 18.8 15.6 10.7 60.5 32 59.4 39z" class="cls-2" data-name="Path 6966"/>
                <path id="Path_6967" d="M149 169.8s-4.7 45.1 21.5 89.9 39.2 61.8 48 92.4" class="cls-10" data-name="Path 6967"/>
                <path id="Path_6968" d="M175.5 198.9s-16.9 18.2-16.9 35.6" class="cls-10" data-name="Path 6968"/>
                <path id="Path_6969" d="M126.6 208.1s21.8 10.6 33.5 30.2" class="cls-10" data-name="Path 6969"/>
                <path id="Path_6970" d="M206.7 227s-1.4 11.8-26.1 49.5" class="cls-10" data-name="Path 6970"/>
                <path id="Path_6971" d="M129.1 247.3s36.2 10.5 43.5 16" class="cls-10" data-name="Path 6971"/>
                <path id="Path_6972" d="M152.4 283.9s30.5 5 43.9 19.2" class="cls-10" data-name="Path 6972"/>
            </g>
            <g id="Group_13879" data-name="Group 13879">
                <g id="Group_13878" data-name="Group 13878">
                    <path id="Path_6973" d="M184.4 226.2c.9-88.5-51.9-141.1-52.4-141.6l-1.2 1.2c.5.5 52.8 52.6 51.9 140.4z" class="cls-4" data-name="Path 6973"/>
                </g>
                <path id="Path_6974" d="M133.1 86.7a17.748 17.748 0 0 0-5-8.9c-1.4-1.3-4.9-2.5-6.1-1.1-1.2 1.3-.4 4.1 1.7 6a18.543 18.543 0 0 0 9.4 4z" class="cls-9" data-name="Path 6974"/>
                <path id="Path_6975" d="M138.9 94a17.1 17.1 0 0 0-8.4-4c-1.7-.2-4.9.6-5.1 2.1s1.8 3.1 4.4 3.4a16.913 16.913 0 0 0 9.1-1.5z" class="cls-9" data-name="Path 6975"/>
                <path id="Path_6976" d="M147.6 107.1a12.894 12.894 0 0 0-7.6-2.7c-1.5 0-4 1.4-4 3.1.1 1.6 2 2.9 4.2 2.8a12.331 12.331 0 0 0 7.4-3.2z" class="cls-9" data-name="Path 6976"/>
                <path id="Path_6977" d="M138.1 93.8a12.5 12.5 0 0 0 5.3-6c.5-1.4.2-4.3-1.4-4.8-1.5-.6-3.4.8-4.1 2.8a12.753 12.753 0 0 0 .2 8z" class="cls-9" data-name="Path 6977"/>
                <path id="Path_6978" d="M180 183.4a15.01 15.01 0 0 0 7.6-3.9c1.1-1.2 2.2-4 1.1-5.1-1.1-1-3.4-.4-5 1.3a14.325 14.325 0 0 0-3.7 7.7z" class="cls-9" data-name="Path 6978"/>
                <path id="Path_6979" d="M148.4 106.5a16.9 16.9 0 0 0 6-7.5c.6-1.7.4-5.1-1.2-5.7s-3.7 1.1-4.6 3.6a17.947 17.947 0 0 0-.2 9.6z" class="cls-9" data-name="Path 6979"/>
                <path id="Path_6980" d="M157.6 120.7s4.6-2.1 6.1-6.2c.5-1.5 0-4.6-1.9-5.3s-4.1.7-4.9 2.8c-1.4 4.1.7 8.7.7 8.7z" class="cls-9" data-name="Path 6980"/>
                <path id="Path_6981" d="M156.4 121.1s-3.2-3.8-7.6-4.4c-1.6-.2-4.6.9-4.8 2.8s1.6 3.6 4 4c4.3.5 8.4-2.4 8.4-2.4z" class="cls-9" data-name="Path 6981"/>
                <path id="Path_6982" d="M179.6 184.2a13.549 13.549 0 0 0-5.3-6.7c-1.5-1-4.9-1.8-6.1-.8-1.1 1-.2 3.1 1.9 4.5a22.252 22.252 0 0 0 9.5 3z" class="cls-9" data-name="Path 6982"/>
                <path id="Path_6983" d="M170.7 150.5a11.363 11.363 0 0 0-6.9-1.6c-1.5.1-4.6 1.2-5 2.4s1.2 2 3.4 1.8a21.892 21.892 0 0 0 8.5-2.6z" class="cls-9" data-name="Path 6983"/>
                <path id="Path_6984" d="M165.4 136.2a9.386 9.386 0 0 0 3.5-5.4c.4-1.3.2-4.2-.8-4.9s-2.2.4-2.7 2.4a20.628 20.628 0 0 0 0 7.9z" class="cls-9" data-name="Path 6984"/>
                <path id="Path_6985" d="M175.7 168.2s-1.8-5-4.9-7.4c-1.1-.9-3.4-1-3.8.7s.7 4.1 2.3 5.4a7.716 7.716 0 0 0 6.4 1.3z" class="cls-9" data-name="Path 6985"/>
                <path id="Path_6986" d="M170.6 151.2s5.5-2.8 8.3-7c1-1.5 1.3-4.3-.5-4.6s-4.5 1.4-6 3.6a10.543 10.543 0 0 0-1.8 8z" class="cls-9" data-name="Path 6986"/>
                <path id="Path_6987" d="M176.6 168.7s5.2-2.7 7.6-6.5c.9-1.4.9-4-.9-4.2s-4.4 1.3-5.6 3.4a8.369 8.369 0 0 0-1.1 7.3z" class="cls-9" data-name="Path 6987"/>
                <path id="Path_6988" d="M96.7 123.8a15.01 15.01 0 0 0 7.6-3.9c1.1-1.2 2.2-4 1.1-5.1-1.1-1-3.4-.4-5 1.3a14.325 14.325 0 0 0-3.7 7.7z" class="cls-9" data-name="Path 6988"/>
                <path id="Path_6989" d="M183 214.5a13.549 13.549 0 0 0-5.3-6.7c-1.5-1-4.9-1.8-6.1-.8-1.1 1-.2 3.1 1.9 4.5a23.562 23.562 0 0 0 9.5 3z" class="cls-9" data-name="Path 6989"/>
                <path id="Path_6990" d="M182.1 199.4a11.559 11.559 0 0 0-5.1-5c-1.4-.7-4.6-1.3-5.6-.5s0 2.3 2 3.4a25.265 25.265 0 0 0 8.7 2.1z" class="cls-9" data-name="Path 6990"/>
                <path id="Path_6991" d="M146.5 141.4s-3.3-3.7-7-4.9c-1.3-.5-3.5 0-3.4 1.4.2 1.5 2 3.2 3.9 3.9a8.45 8.45 0 0 0 6.5-.4z" class="cls-9" data-name="Path 6991"/>
                <path id="Path_6992" d="M183.3 215s5.8-2.1 9.1-5.9c1.2-1.4 1.8-4.1.1-4.7-1.7-.5-4.7.8-6.4 2.8a10.786 10.786 0 0 0-2.8 7.8z" class="cls-9" data-name="Path 6992"/>
                <path id="Path_6993" d="M182.4 199.7s5.3-1.9 7.8-5.3c.9-1.2 1.1-3.6-.7-4s-4.4.8-5.7 2.5a7.619 7.619 0 0 0-1.4 6.8z" class="cls-9" data-name="Path 6993"/>
                <path id="Path_6994" d="M165.4 137.4a17.561 17.561 0 0 0-7.8-4.6c-1.8-.5-5.6-.5-6.3.6s1 2.6 3.6 3.4a29.078 29.078 0 0 0 10.5.6z" class="cls-9" data-name="Path 6994"/>
            </g>
        </g>
        <g id="Group_13881" data-name="Group 13881">
            <path id="Rectangle_5216" d="M0 0h522.3v312.5H0z" class="cls-11" data-name="Rectangle 5216" transform="translate(172.3 71.1)"/>
            <path id="Rectangle_5217" d="M0 0h522.3v16.7H0z" class="cls-12" data-name="Rectangle 5217" transform="translate(172.3 71.1)"/>
            <path id="Path_6995" d="M184.6 79.4a3.3 3.3 0 1 1-3.3-3.3 3.329 3.329 0 0 1 3.3 3.3z" class="cls-13" data-name="Path 6995"/>
            <path id="Path_6996" d="M195.2 79.4a3.3 3.3 0 1 1-3.3-3.3 3.329 3.329 0 0 1 3.3 3.3z" class="cls-14" data-name="Path 6996"/>
            <path id="Path_6997" d="M205.7 79.4a3.3 3.3 0 1 1-3.3-3.3 3.329 3.329 0 0 1 3.3 3.3z" class="cls-15" data-name="Path 6997"/>
        </g>
        <g id="Group_13887" data-name="Group 13887">
            <path id="Rectangle_5218" d="M0 0h522.2v29.2H0z" class="cls-16" data-name="Rectangle 5218" transform="translate(172.3 88.3)"/>
            <path id="Rectangle_5219" d="M0 0h108.5v123.6H0z" class="cls-17" data-name="Rectangle 5219" transform="translate(210.1 123.7)"/>
            <path id="Rectangle_5220" d="M0 0h93v250.9H0z" class="cls-17" data-name="Rectangle 5220" transform="translate(595 123.7)"/>
            <path id="Rectangle_5221" d="M0 0h343.3v123.6H0z" class="cls-17" data-name="Rectangle 5221" transform="translate(210.1 253.6)"/>
            <path id="Rectangle_5222" d="M0 0h343.3v34.4H0z" class="cls-12" data-name="Rectangle 5222" transform="translate(210.1 347.1)"/>
            <path id="Rectangle_5223" d="M0 0h119.6v6H0z" class="cls-18" data-name="Rectangle 5223" transform="translate(221.8 99.9)"/>
            <path id="Rectangle_5224" d="M0 0h12.4v1.6H0z" class="cls-18" data-name="Rectangle 5224" transform="translate(188.5 98)"/>
            <path id="Rectangle_5225" d="M0 0h12.4v1.6H0z" class="cls-18" data-name="Rectangle 5225" transform="translate(188.5 106.3)"/>
            <path id="Rectangle_5226" d="M0 0h12.4v1.7H0z" class="cls-18" data-name="Rectangle 5226" transform="translate(188.5 102.1)"/>
            <path id="Path_6998" d="M657 94.9h-13.4a1.324 1.324 0 0 0-1.3 1.3v10.5a1.324 1.324 0 0 0 1.3 1.3h.8v2.9l2.9-2.9h9.6a1.324 1.324 0 0 0 1.3-1.3V96.2a1.24 1.24 0 0 0-1.2-1.3z" class="cls-19" data-name="Path 6998"/>
            <g id="Group_13882" class="cls-20" data-name="Group 13882">
                <path id="Path_6999" d="M678.3 94.1a7.6 7.6 0 1 0 7.6 7.6 7.6 7.6 0 0 0-7.6-7.6z" class="cls-17" data-name="Path 6999"/>
            </g>
            <g id="Group_13883" class="cls-21" data-name="Group 13883">
                <path id="Path_7000" d="M682.2 105.4v-.4a2.647 2.647 0 0 0-2.6-2.6H677a2.647 2.647 0 0 0-2.6 2.6v.4z" class="cls-22" data-name="Path 7000"/>
                <path id="Path_7001" d="M680 99.4a1.7 1.7 0 1 1-1.7-1.7 1.628 1.628 0 0 1 1.7 1.7z" class="cls-22" data-name="Path 7001"/>
            </g>
            <path id="Path_7002" d="M662.4 96.5a4.4 4.4 0 1 1-4.4-4.4 4.439 4.439 0 0 1 4.4 4.4z" class="cls-23" data-name="Path 7002"/>
            <path id="Rectangle_5227" d="M0 0h42.4v6.1H0z" class="cls-24" data-name="Rectangle 5227" transform="translate(602.6 150.6)"/>
            <path id="Rectangle_5228" d="M0 0h75v6.1H0z" class="cls-12" data-name="Rectangle 5228" transform="translate(602.6 162)"/>
            <path id="Path_7003" d="M615.5 136.6a6.4 6.4 0 1 1-6.4-6.4 6.445 6.445 0 0 1 6.4 6.4z" class="cls-12" data-name="Path 7003"/>
            <path id="Rectangle_5229" d="M0 0h42.4v6.1H0z" class="cls-24" data-name="Rectangle 5229" transform="translate(602.6 185.6)"/>
            <path id="Rectangle_5230" d="M0 0h75v6.1H0z" class="cls-12" data-name="Rectangle 5230" transform="translate(602.6 196.9)"/>
            <path id="Rectangle_5231" d="M0 0h42.4v6.1H0z" class="cls-24" data-name="Rectangle 5231" transform="translate(602.6 220.6)"/>
            <path id="Rectangle_5232" d="M0 0h75v6.1H0z" class="cls-12" data-name="Rectangle 5232" transform="translate(602.6 231.9)"/>
            <g id="Group_13884" data-name="Group 13884">
                <path id="Line_2038" d="M0 0h77.3" class="cls-25" data-name="Line 2038" transform="translate(233.5 234.3)"/>
                <path id="Line_2039" d="M0 0h8.2" class="cls-26" data-name="Line 2039" transform="translate(218 234.3)"/>
                <path id="Rectangle_5233" d="M0 0h93.5v91.3H0z" class="cls-12" data-name="Rectangle 5233" transform="translate(218.3 131)"/>
            </g>
            <path id="Rectangle_5234" d="M0 0h108.5v123.6H0z" class="cls-17" data-name="Rectangle 5234" transform="translate(328.1 123.7)"/>
            <g id="Group_13885" data-name="Group 13885">
                <path id="Line_2040" d="M0 0h77.3" class="cls-25" data-name="Line 2040" transform="translate(351.5 234.3)"/>
                <path id="Line_2041" d="M0 0h8.2" class="cls-26" data-name="Line 2041" transform="translate(336 234.3)"/>
                <path id="Rectangle_5235" d="M0 0h93.5v91.3H0z" class="cls-12" data-name="Rectangle 5235" transform="translate(336.3 131)"/>
            </g>
            <path id="Rectangle_5236" d="M0 0h108.5v123.6H0z" class="cls-17" data-name="Rectangle 5236" transform="translate(445.1 123.7)"/>
            <g id="Group_13886" data-name="Group 13886">
                <path id="Line_2042" d="M0 0h77.3" class="cls-25" data-name="Line 2042" transform="translate(468.5 234.3)"/>
                <path id="Line_2043" d="M0 0h8.2" class="cls-26" data-name="Line 2043" transform="translate(453 234.3)"/>
                <path id="Rectangle_5237" d="M0 0h93.5v91.3H0z" class="cls-12" data-name="Rectangle 5237" transform="translate(453.3 131)"/>
            </g>
        </g>
        <g id="Group_13901" data-name="Group 13901">
            <g id="Group_13892" data-name="Group 13892">
                <path id="Path_7004" d="M186.9 309.1c3.9 1 11.1 4.5 12.6 10.4 2.3 9-2.3 22.1 4.9 35 2.3 4.1-39.5 9.6-39.5 9.6l-8.1-45.3s10.1-9.8 12.1-10.5c4.3-1.3 10.2-1.2 18 .8z" class="cls-27" data-name="Path 7004"/>
                <g id="Group_13888" data-name="Group 13888">
                    <path id="Path_7005" d="M156.7 318.9c-1.4 3.6-5.1 25.2-1 30.2.5.6-2.1 1.5-1.7 4.2.1.5.9 2.6.9 2.6l3.3.9 10.1-5.7-1.9-2.3h-.9a1.909 1.909 0 0 1-.6-1.8c.2-1-2.3-2.6-6.2-19.3-1.2-5-1.7-9.6-2-8.8z" class="cls-28" data-name="Path 7005"/>
                    <path id="Path_7006" d="M160.6 348.1l3-.7 1.2-.2a2.1 2.1 0 0 0 .7 1.4l-2.3.1-2.7.6-3.3 1.9z" class="cls-29" data-name="Path 7006"/>
                </g>
                <path id="Path_7007" d="M164.9 350.9a9.366 9.366 0 0 0-4.3 1.2c-1.5.9-2.9 2.9-1.5 4a22.336 22.336 0 0 0 3.5 2.1s5.3.1 2.3-7.3z" class="cls-30" data-name="Path 7007"/>
                <path id="Path_7008" d="M159.1 356.1l1.4-.3s4.8-.4 5.5-.1c.7.4 2.9 1.9 2.9 1.9l.5.4a2.268 2.268 0 0 1-2.5-.3c-1.5-1-1.6-.2-1.6-.2l.2 1.3v1.6l.2.7s.2.4 0 .5a.865.865 0 0 1-.9.2l-1.5-2.6-.4 2.8a1.039 1.039 0 0 1-.7.5c-.4.1-.4 0-.4 0l-.3-.7a.914.914 0 0 1-.3.5 1.237 1.237 0 0 1-.9.2l.1-2.9-.6 1.5a1.039 1.039 0 0 1-.7.5 1.374 1.374 0 0 0-.6.2z" class="cls-31" data-name="Path 7008"/>
                <g id="Group_13890" data-name="Group 13890">
                    <g id="Group_13889" data-name="Group 13889">
                        <path id="Path_7009" d="M184.2 344.6s-3.5 8.9-11.9 11.3c-1.5.4-2.4 2-1.7 2.5.9.6 2.1.8 4.3.8 4.4 0 10.4-1.4 14.6-5.4 6.1-5.9 8.1-8.7 7.5-11.6-.8-3.1-12.8 2.4-12.8 2.4z" class="cls-32" data-name="Path 7009"/>
                        <path id="Path_7010" d="M198.2 316.5c1.8 2.9 2.8 7.7 2.8 14.4 0 5.2-4.5 13.8-5.2 16.4-.1.4-.4 2.3-.4 2.3l-5 4.9-10-6.8 3-4.7.9.1a13.633 13.633 0 0 0 .4-3.6c-.2-1 2.8-14.5 4.2-23.1 1-4.9 7.6-2.8 9.3.1z" class="cls-28" data-name="Path 7010"/>
                        <path id="Path_7011" d="M189.3 343l-2.9-.9-1.2-.3a2.534 2.534 0 0 1-.8 1.4l2.3.3 2.7.8 3.1 2.1z" class="cls-27" data-name="Path 7011"/>
                    </g>
                    <path id="Path_7012" d="M172.9 355.9l-5.1-1.4s-1.4 1.9-1.2 2.4c.3.5 0 3.3 0 3.3l2.5 2.1 2-.7s.1-.9-.5-1c-.7-.1.5-.6.8-.8.3-.1 3.3-1.6 1.5-3.9z" class="cls-32" data-name="Path 7012"/>
                </g>
                <path id="Path_7013" d="M180.7 308.7a3.158 3.158 0 0 1-1.9 4l-2.9 1a3.158 3.158 0 0 1-4-1.9l-2.6-7.4a3.158 3.158 0 0 1 1.9-4l2.9-1a3.158 3.158 0 0 1 4 1.9z" class="cls-31" data-name="Path 7013"/>
                <g id="Group_13891" data-name="Group 13891">
                    <path id="Path_7014" d="M168.1 315.1a2 2 0 0 0 2.5 1.4l8.7-2.4a2 2 0 0 0 1.4-2.5l-3.6-12.9a2 2 0 0 0-2.5-1.4l-8.7 2.4a2 2 0 0 0-1.4 2.5z" class="cls-32" data-name="Path 7014"/>
                    <path id="Path_7015" d="M165.2 304.9a7.075 7.075 0 0 1-1.9-1.6 3.2 3.2 0 0 1 .6-2.8c.8-.8 1.9 0 1.9 0s-1.3 1.3-1.3 1.6.7 2.8.7 2.8z" class="cls-33" data-name="Path 7015"/>
                    <path id="Path_7016" d="M179.6 304.3s0-5.3-.7-6.7c-.6-1.4-1.1-2.4-2.9-2-2.7.5-2.6 1.1-4.1.6s-4.4-1.8-5.2-1.7a2.791 2.791 0 0 0-2.8 3.6 3.33 3.33 0 0 1-.5 2.7 4.2 4.2 0 0 0 1.7.5c2.8.5 4.3.4 6-.6s4.9-3 5.7-1.7 1.8 5.5 2 5.8c.2.1.5-.2.8-.5z" class="cls-34" data-name="Path 7016"/>
                    <path id="Path_7017" d="M177.9 308.9a.657.657 0 0 0 .8.5l1.9-.5a.657.657 0 0 0 .5-.8l-.9-3.4a.657.657 0 0 0-.8-.5l-1.9.5a.657.657 0 0 0-.5.8z" class="cls-32" data-name="Path 7017"/>
                    <path id="Path_7018" d="M166.7 312a.657.657 0 0 0 .8.5l1.9-.5a.657.657 0 0 0 .5-.8l-.9-3.5a.657.657 0 0 0-.8-.5l-1.9.5a.657.657 0 0 0-.5.8z" class="cls-32" data-name="Path 7018"/>
                    <path id="Path_7019" d="M179.1 305.7s1.4 5.1 1.9 6.8c.4 1.5.7 5.1-7.9 7.5-5.1 1.4-6-2.4-6.3-3.7a10.957 10.957 0 0 1 .4-4.8l.6 2.1a4.281 4.281 0 0 1 2.9-3c3.9-1.1 5.5 1 7.2.5 1.3-.5 1.7-2.9 1.2-5.4z" class="cls-34" data-name="Path 7019"/>
                    <path id="Path_7020" d="M173.2 313.5l-2.7.7a.618.618 0 0 1-.8-.5l-.1-.4 4-1.1.1.4a.937.937 0 0 1-.5.9z" class="cls-32" data-name="Path 7020"/>
                </g>
            </g>
            <path id="Path_7021" d="M130.6 365.2c1.2 3.4 23 16.1 30.3 15.3l22 1c18.7-2.3 27.6-31.4 27.6-31.4-.7-7.3-19.2 3.3-25.8 6.6-10.4 5.2-17 5.5-17 5.5-7 .7-15-4.7-23.8-4.8-9.6-.2-15.3 2.4-13.3 7.8z" class="cls-35" data-name="Path 7021"/>
            <g id="Group_13895" data-name="Group 13895">
                <path id="Path_7022" d="M178.4 361.7v-.9l-37.9-.7v.9l.1.2a2.419 2.419 0 0 0 2.3 1l33 .6c1 0 1.9-.1 2.4-.9z" class="cls-36" data-name="Path 7022"/>
                <path id="Path_7023" d="M169.3 361.7l.1.2a1.205 1.205 0 0 0 .5.5l5.8.1a2.791 2.791 0 0 0 2.3-.7l.1-.1v-.4l-8.8-.2z" class="cls-12" data-name="Path 7023"/>
                <g id="Group_13893" data-name="Group 13893">
                    <path id="Rectangle_5238" d="M0 0h.6v18.9H0z" class="cls-37" data-name="Rectangle 5238" transform="rotate(-88.954 256.476 106.52)"/>
                </g>
                <g id="Group_13894" data-name="Group 13894">
                    <path id="Path_7024" d="M169.1 360.5l-4.6-18.7a1.172 1.172 0 0 0-1.1-.9l-26.6-.5a.7.7 0 0 0-.7.9l4.6 18.7z" class="cls-8" data-name="Path 7024"/>
                    <path id="Path_7025" d="M154.3 350.5a1.271 1.271 0 0 1-1.3 1.7 2.232 2.232 0 0 1-2.1-1.8 1.271 1.271 0 0 1 1.3-1.7 2.574 2.574 0 0 1 2.1 1.8z" class="cls-11" data-name="Path 7025"/>
                </g>
            </g>
            <g id="Group_13897" data-name="Group 13897">
                <path id="Path_7026" d="M186.3 386.4c-2.6.5-4.6-2.6-4.6-2.6l-6.8-5.3 1.4-3.6 13.2 5.9s-.6 5.2-3.2 5.6z" class="cls-32" data-name="Path 7026"/>
                <path id="Path_7027" d="M181.6 383.6a7.522 7.522 0 0 0 .5 1.7c.5 1.4 1.1 1.9 1.8 2.1 2.5.7 4.3.4 10.4 1.5 6.1 1.2 7.9.3 9.7-2.5s-.1-5-3-5.2c-4.3-.3-6.7.2-8.9-.2-2.3-.4-2.5-.9-3.9-1.7-1.3-.8-2.5 3.9-1.3 5 1.1.9-4.3 1.1-5.3-.7z" class="cls-28" data-name="Path 7027"/>
                <path id="Path_7028" d="M182.9 386.3c2.5.7 4.4.4 10.4 1.5 6.1 1.2 7.9.3 9.7-2.5a3.334 3.334 0 0 0 .4-3.4c1.3.9 1.8 2.5.6 4.4-1.8 2.8-3.6 3.7-9.7 2.5s-7.9-.8-10.4-1.5a2.156 2.156 0 0 1-1.4-1.3c.2.2.3.3.4.3z" class="cls-17" data-name="Path 7028"/>
                <g id="Group_13896" data-name="Group 13896">
                    <path id="Path_7030" d="M194.8 385.8c.2.1.4-.3.4-.8a10.758 10.758 0 0 1 .7-3.1c.2-.5.2-1 0-1-.2-.1-.6.3-.7.8a17.291 17.291 0 0 0-.7 3.1 1.025 1.025 0 0 0 .3 1z" class="cls-17" data-name="Path 7030"/>
                    <path id="Path_7031" d="M192.9 385.5c.2 0 .4-.3.5-.8a10.88 10.88 0 0 1 .7-3c.2-.5.2-.9-.1-.9a.969.969 0 0 0-.7.8 15.293 15.293 0 0 0-.7 2.9.944.944 0 0 0 .3 1z" class="cls-17" data-name="Path 7031"/>
                    <path id="Path_7032" d="M190.9 385.4c.2 0 .4-.4.5-.9a16.661 16.661 0 0 1 .8-3c.2-.5.2-.9 0-.9s-.6.4-.8.9a16.662 16.662 0 0 0-.8 3c0 .4.1.8.3.9z" class="cls-17" data-name="Path 7032"/>
                </g>
            </g>
            <path id="Path_7033" d="M185.8 377.7s-46.6-19.1-49.2-19.2c-9-.1-6.9 9-2.4 13.3 5.4 5.1 46.3 14.3 46.3 14.3z" class="cls-38" data-name="Path 7033"/>
            <g id="Group_13900" data-name="Group 13900">
                <path id="Path_7034" d="M167.3 381l12.8-12-5.5-5.4-13.8 14.6z" class="cls-32" data-name="Path 7034"/>
                <path id="Path_7035" d="M164.7 371.6s32.3-29.6 34.5-30.5c7.4-3 12 5.2 11.7 8-.3 3.7-33.2 33.3-33.2 33.3z" class="cls-39" data-name="Path 7035"/>
                <g id="Group_13899" data-name="Group 13899">
                    <path id="Path_7036" d="M145.5 382c-.8.7-.9 2.8-.9 2.8s10.8 4.1 14.6 4.2a25.321 25.321 0 0 0 4.5-.8c.3-.1.9-.8 1.2-.9.5-.2.6.4 1.1.2 1.1-.4 2-.7 2-.7 2.3-4.8 1.5-7.2 1.5-7.2s-5 1.4-4.1.3c1.8-2.4-3.4-4.8-4.5-3.5-4.7 4.8-13.2 3.5-15.4 5.6z" class="cls-28" data-name="Path 7036"/>
                    <path id="Path_7037" d="M144.9 383c3.3 1.3 10.3 4 11.7 4.1 5.7.4 9.7-1.6 12.3-2.8a13.566 13.566 0 0 1-.9 2.3 7.306 7.306 0 0 1-2 .7c-.4.1-.6-.4-1.1-.2-.3.1-.9.8-1.2.9a14.71 14.71 0 0 1-4.5.8c-3.8-.1-14.6-4.2-14.6-4.2a15.4 15.4 0 0 1 .3-1.6z" class="cls-17" data-name="Path 7037"/>
                    <g id="Group_13898" data-name="Group 13898">
                        <path id="Path_7038" d="M152.6 379.8c-.1.2.3.4.9.5a15 15 0 0 1 3.6 1.1c.6.2 1.1.3 1.2.1s-.3-.6-.9-.8a24.729 24.729 0 0 0-3.6-1.1c-.6 0-1.1 0-1.2.2z" class="cls-17" data-name="Path 7038"/>
                        <path id="Path_7039" d="M155 379c-.1.2.3.5.9.6a15.063 15.063 0 0 1 3.5 1.4c.6.3 1.1.4 1.2.2s-.3-.6-.9-.9a14.761 14.761 0 0 0-3.5-1.3c-.6-.3-1.1-.2-1.2 0z" class="cls-17" data-name="Path 7039"/>
                        <path id="Path_7040" d="M157.3 378.2c-.1.2.3.5.9.7a15.443 15.443 0 0 1 3.4 1.7c.5.3 1 .4 1.1.2s-.3-.7-.8-1a21.1 21.1 0 0 0-3.4-1.6c-.6-.2-1.1-.2-1.2 0z" class="cls-17" data-name="Path 7040"/>
                    </g>
                </g>
            </g>
        </g>
        <g id="Group_13910" data-name="Group 13910">
            <path id="Path_7041" d="M362.3 40c-23.1-2.1-18.1-17.7-36.5-26.7-7.2-3.5-9.3 2.5-12 5.3l-2.8 1.2c-2.9 2.9-1.4 7.8 1.6 10.7l4.5 4.5c5.2 4.2 2.7 11.2 6.1 14.6a9.871 9.871 0 0 0 13.8-.1c.1.1.2.3.3.4 3.8 3.8 22 6.4 26.3 3 8.1-6.7 3.3-12.5-1.3-12.9z" class="cls-40" data-name="Path 7041"/>
            <g id="Group_13904" data-name="Group 13904">
                <g id="Group_13903" data-name="Group 13903">
                    <g id="Group_13902" data-name="Group 13902">
                        <path id="Path_7042" d="M325.8 64.3s-.2 1.7-8.3.9-19.7-3.9-19.7-3.9h18.8c0 .1 7.2.4 9.2 3z" class="cls-41" data-name="Path 7042"/>
                        <path id="Path_7043" d="M304.1 62.5c-3.8-.2-5.6 1.6-7.2 2.1a20.617 20.617 0 0 0-3.1 1.3c1-1.6 2.2-1.6 2.9-2 .7-.5.5-.2-.9-.4-.8-.1-2.2 1.2-3.3 1.9a2.914 2.914 0 0 1-1.4.6 23.37 23.37 0 0 1 2.4-2.4 20.866 20.866 0 0 1 4-2.4 13.486 13.486 0 0 1 5.2.2c2.1.4 4.2 1.3 1.4 1.1z" class="cls-41" data-name="Path 7043"/>
                        <path id="Path_7044" d="M297.8 61.3a25.9 25.9 0 0 0-3.5.9 21.22 21.22 0 0 0-2 1.7 3.677 3.677 0 0 0 1.8-.7 33.181 33.181 0 0 1 3.7-1.9z" class="cls-41" data-name="Path 7044"/>
                    </g>
                    <path id="Path_7045" d="M322.5 60.6s7.4.9 6.6 5.3c-.4 2.5-2.2 3.3-4.4 2.9-4.2-.6-8.9-1.5-8.9-1.5l-1.7-7z" class="cls-42" data-name="Path 7045"/>
                </g>
                <path id="Path_7046" d="M322.7 63.7l3.4-24.3s.3-5.2 2.2-4.9c2.7.4 6.8 8.3 6.9 9.9.2 3.3-4.6 20.4-5.2 23.8-.4 2.3-2.5-.5-4.9-.9-4.5-.7-2.4-3.6-2.4-3.6z" class="cls-42" data-name="Path 7046"/>
            </g>
            <path id="Path_7047" d="M423.1 33.3l7.2-12.6 8.5.5 4.2 1.2-9.4 1.4-6 11.8z" class="cls-32" data-name="Path 7047"/>
            <path id="Path_7048" d="M431.4 18.7l1.1.4.5 1.4 6.8.3 5.4 1.5s-.1.4-.4.5c-1 .4-5.3.3-5.3.3s.5-1.1.1-1.4c-.5-.3-5.7-.4-7-.4-2.2.1-3.4.6-3.2.3.2-.4 2-2.9 2-2.9z" class="cls-43" data-name="Path 7048"/>
            <path id="Path_7049" d="M387.1 57.2l19.8 2.2 17.6-31.2 5.9 3L412.6 69s-1.4 2.4-7.4 1.9c-5.8-.5-29.5-1.9-32.1-2.9-6.1-2.3 14.6-5.3 14-10.8z" class="cls-44" data-name="Path 7049"/>
            <path id="Path_7050" d="M311.3 25.1c.5.5 1 .9 1.6 1.4 3.9 2.8 8.6 3.3 11.2 1.3a20.1 20.1 0 0 0 4.9 3.3 11.085 11.085 0 0 0 4.7.7c2.8 2 4.4 9.9-1.9 13-3.8 1.9-4.5-2.6-4-5.7a8.923 8.923 0 0 0 0-3.7c-1.4-2.2-2.3-2.2-4-2.6a6.053 6.053 0 0 0-4.5 1.7.864.864 0 0 1-.6.3 3.805 3.805 0 0 1-1.3-.9l-4.4-4.3a5.2 5.2 0 0 1-1.7-4.5z" class="cls-32" data-name="Path 7050"/>
            <path id="Path_7051" d="M407.2 26.6l.3-10.1 2-2.4 5.5-3.2 4 .7-7.1 5.4-.4 10.6z" class="cls-32" data-name="Path 7051"/>
            <path id="Path_7052" d="M407.8 14.3l1.8-1.3.6.4 5.1-3.3s4.6-1.2 5.5-.2c.3.3-.5.9-1.5 1.7-.8.6-1.3.9-1.3.9s-.2-.8-2.1-1.1c-.6-.1-4.2 2.3-5.4 3a11.812 11.812 0 0 0-3.2 2.6c-.4-.4.5-2.7.5-2.7z" class="cls-43" data-name="Path 7052"/>
            <path id="Path_7053" d="M367.1 73.6l4.5-.2 36.4-2.6s3.3 1 5.3-4.2c2.9-7.3-1.2-44-1.2-44l-5.4.1-2.7 34.7s-25.5-8.2-31.3-6.1c-6.8 2.4-10.7 5.6-19.2 14.4-3.8 3.9 1.2 7.3 1.2 7.3z" class="cls-13" data-name="Path 7053"/>
            <path id="Path_7054" d="M326.1 36.4s6.2-7.7 11.3-3.1 23 19 28.5 20.7l1.2 20.2c-14.8 1-26.9-6.6-27.9-8.1-3.3-4.9-15.1-23.5-13.1-29.7z" class="cls-43" data-name="Path 7054"/>
            <path id="Path_7055" d="M344 61.3c-1.4-2-4.4-6.2-7.3-11-3.6-6-9.2-5-6.2.9a164.346 164.346 0 0 0 8.8 14.9c1 1.5 10.8 9.1 25.6 8.1l-1.4-2c-10.7-1-18.6-9.6-19.5-10.9z" class="cls-42" data-name="Path 7055"/>
            <g id="Group_13906" data-name="Group 13906">
                <g id="Group_13905" data-name="Group 13905">
                    <path id="Path_7056" d="M334.9 69.3s2.2 2.4-7.8 1.4c-7.2-.7-7-.2-24.6-4.8l23.4.4s6.5 0 9 3z" class="cls-32" data-name="Path 7056"/>
                    <path id="Path_7057" d="M310.3 67.4c-4.8-.4-7 1.7-9 2.2a29.252 29.252 0 0 0-3.9 1.4c1.2-1.8 2.7-1.7 3.6-2.3.8-.5.6-.3-1.1-.5-1-.1-2.8 1.3-4.1 2.1a3.77 3.77 0 0 1-1.8.7 16.019 16.019 0 0 1 3-2.6 29.486 29.486 0 0 1 5-2.7 18.734 18.734 0 0 1 6.5.3c2.7.5 5.3 1.7 1.8 1.4z" class="cls-32" data-name="Path 7057"/>
                    <path id="Path_7058" d="M302.3 65.8a28.46 28.46 0 0 0-4.4 1c-.5.3-2.5 1.9-2.5 1.9a4.964 4.964 0 0 0 2.2-.7c.9-.6 4.7-2.2 4.7-2.2z" class="cls-41" data-name="Path 7058"/>
                </g>
                <path id="Path_7059" d="M329.7 65.3l-3.3-27.4s2.1-2.7 4-1.8a70.559 70.559 0 0 1 6 3.8 92.079 92.079 0 0 1 4.3 17.9c1.5 13.9.8 14.2-4.3 15.4-5.3 1.3-14.9 0-14.9 0l-2.1-7.8z" class="cls-43" data-name="Path 7059"/>
            </g>
            <g id="Group_13909" data-name="Group 13909">
                <path id="Path_7060" d="M313.2 71.9v-1.1h-43.9v1.1l.1.2a2.961 2.961 0 0 0 2.7 1.1h38.2c1.2 0 2.2-.2 2.7-1.1z" class="cls-5" data-name="Path 7060"/>
                <path id="Path_7061" d="M302.6 72.1l.1.2a2.651 2.651 0 0 0 .6.5h6.7c1.1 0 2.1-.1 2.6-.9l.1-.2v-.5h-10.2v.9z" class="cls-36" data-name="Path 7061"/>
                <g id="Group_13907" data-name="Group 13907">
                    <path id="Rectangle_5239" d="M0 0h21.9v.7H0z" class="cls-36" data-name="Rectangle 5239" transform="translate(274.8 71.1)"/>
                </g>
                <g id="Group_13908" data-name="Group 13908">
                    <path id="Path_7062" d="M302.4 70.8l-5.7-21.6a1.381 1.381 0 0 0-1.3-1h-30.8a.8.8 0 0 0-.8 1l5.7 21.6z" class="cls-45" data-name="Path 7062"/>
                    <path id="Path_7063" d="M285 59.5a1.5 1.5 0 0 1-1.5 2 2.769 2.769 0 0 1-2.5-2 1.5 1.5 0 0 1 1.5-2 2.769 2.769 0 0 1 2.5 2z" class="cls-36" data-name="Path 7063"/>
                </g>
            </g>
        </g>
        <g id="Group_13912" data-name="Group 13912">
            <g id="Group_13911" data-name="Group 13911">
                <path id="Path_7064" d="M271.1 387.2h-2.2l52.5-196.1h2.3z" class="cls-8" data-name="Path 7064"/>
                <path id="Path_7065" d="M302 387.2h-2.2l52.5-196.1h2.3z" class="cls-8" data-name="Path 7065"/>
                <path id="Path_7066" d="M319.3 203.2l.6-2.2h31.7l-.6 2.2z" class="cls-8" data-name="Path 7066"/>
                <path id="Path_7067" d="M314.7 220.5l.6-2.3h31.6l-.6 2.3z" class="cls-8" data-name="Path 7067"/>
                <path id="Path_7068" d="M310 237.7l.7-2.2h31.6l-.6 2.2z" class="cls-8" data-name="Path 7068"/>
                <path id="Path_7069" d="M305.4 255l.6-2.3h31.7l-.6 2.3z" class="cls-8" data-name="Path 7069"/>
                <path id="Path_7070" d="M300.8 272.2l.6-2.2h31.7l-.6 2.2z" class="cls-8" data-name="Path 7070"/>
                <path id="Path_7071" d="M296.2 289.5l.6-2.3h31.7l-.6 2.3z" class="cls-8" data-name="Path 7071"/>
                <path id="Path_7072" d="M291.6 306.7l.6-2.2h31.6l-.6 2.2z" class="cls-8" data-name="Path 7072"/>
                <path id="Path_7073" d="M286.9 324l.6-2.3h31.7l-.6 2.3z" class="cls-8" data-name="Path 7073"/>
                <path id="Path_7074" d="M282.3 341.2l.6-2.2h31.7l-.6 2.2z" class="cls-8" data-name="Path 7074"/>
                <path id="Path_7075" d="M277.7 358.5l.6-2.3H310l-.6 2.3z" class="cls-8" data-name="Path 7075"/>
                <path id="Path_7076" d="M273.1 375.7l.6-2.2h31.6l-.6 2.2z" class="cls-8" data-name="Path 7076"/>
            </g>
        </g>
        <g id="Group_13913" data-name="Group 13913">
            <path id="Path_7077" d="M301.5 305a2.673 2.673 0 0 0 .2-1.4s-5.5-1.1-7.3-.8a9.572 9.572 0 0 0-2.1.8c-.1.1-.4.5-.5.5-.2.1-.3-.1-.5 0-.5.3-.9.5-.9.5-.7 2.5-.1 3.6-.1 3.6s4.4 1.8 5.6.9c2.8-2.1 4.8-3.3 5.6-4.1z" class="cls-46" data-name="Path 7077"/>
            <path id="Path_7078" d="M314.2 300.4l-.4 4.2 4.1 1.2s.4-.5.7-.4.5.8.9.9c.9.2 1.8.5 2.2.6.8.2 8.1 2.3 8.1 2.3s.4-.8.3-1.1a5.857 5.857 0 0 0-1.1-.9c-1.9-1.2-7.4-4.8-7.8-7.1-.6-2.8-7 .3-7 .3z" class="cls-46" data-name="Path 7078"/>
            <path id="Path_7079" d="M317.4 165.7l-.7-5.1s3.5-.9 3.5-2.9c.1-4.1-3-9.5-4.3-10.9-3.8-3.9-7.6-11.7-16-1.6-3.2 3.8 7.1 13.6 8.4 16.1a12.337 12.337 0 0 1 1 5.9l3.1 1z" class="cls-32" data-name="Path 7079"/>
            <path id="Path_7080" d="M295.5 199.9l21.1 6.1s-12.5 2.8-22.9.5c-10.4-2.1.8-6.4 1.8-6.6z" class="cls-41" data-name="Path 7080"/>
            <path id="Path_7081" d="M304.4 251.5s8.4 10.6 5.4 19.6c-5.5 16-9.9 28.8-11.7 34.2-.7 2.1-1.3 1.6-1.3 1.6l-4.6.1-2-2.1 9.6-36.8z" class="cls-33" data-name="Path 7081"/>
            <path id="Path_7082" d="M349.8 164.3l13-15.8s-5 21.7-12 23.4c-7.1 1.8-1-7.6-1-7.6z" class="cls-32" data-name="Path 7082"/>
            <path id="Path_7083" d="M308.7 166.7s-4.6-.5-13.5 16.5c-8.8 17.1-6.9 17-6.9 17l-.9 4.3 6.5 3.1 9-14.2z" class="cls-47" data-name="Path 7083"/>
            <path id="Path_7084" d="M326.3 221.4s-8.6 35.5-20.2 55.7c-6.2 10.8-5.8-4.7-5.8-4.7l9.6-63.9 22-1c.1 0-2.2 2.9-5.6 13.9z" class="cls-33" data-name="Path 7084"/>
            <path id="Path_7085" d="M311.6 219.6s17.7 35.8 18.6 38.3c4.2 12.5 9.4-2.8 9.7-5.9.3-3-.9-18.6-5.1-33.6l-4.2-15z" class="cls-33" data-name="Path 7085"/>
            <path id="Path_7086" d="M329.7 251s-3 6.2-6.4 14.2c-2.5 5.9-7.5 23.3-9.8 35.7-.1.8 8.2.7 8.2.7s12.5-33 15.4-40.4c2.8-7.4-1-14.2-7.4-10.2z" class="cls-33" data-name="Path 7086"/>
            <path id="Path_7087" d="M302.1 171.9l5.4-5.7 2.3-3.1 9.9-1.4 2.1 3.1 8.1 2.9s2.3 3.2 2 15.9c-.3 14.1 6.8 33.5 4 35.6-18.5 13.9-28.3 3-28.3 3s-9.4-26.6-5.5-50.3z" class="cls-15" data-name="Path 7087"/>
            <path id="Path_7088" d="M316.3 169.6s-1.1 2.4 5.4 4.2c11.1 3.2 22.8 2 25.1 1.9 2.3-.2 5.5-.5 7.6-4.6 1.7-3.2 2.2-4.2 2.2-4.2l-6.3-4.4-1.4 1.7-.6 1s-8.4-.5-16.4-1c-18.3-1.1-15.6 5.4-15.6 5.4z" class="cls-15" data-name="Path 7088"/>
            <path id="Path_7089" d="M313.4 149.2s-1.5-.3-1.3.7c.1 1 1.5 2.8 2.1 2.8s1.6 2.4 1.6 2.4l-.5 3.3-7.5 2.5s-2.7-.2-3.4-1.8-6.6-12.7-6.6-12.7l4.3-4.6a34.515 34.515 0 0 1 4.1-3.5c2.7-1.9 3.9-.5 4 .4.2.9 1.1.6 2.3.2s3 0 2.5.8c-.2.3 1.3.6 1.1 1.7-.3 1.5-2.4 2.7-1.9 4.8.3.9 1 4-.8 3z" class="cls-34" data-name="Path 7089"/>
            <path id="Path_7090" d="M361.9 152.9s-3.1-1.5-3.4-2.4c-.2-1-.8-4.6-.8-4.6l-.1-.9s1-.7 1.4 1.8c.4 2.4.8 1.1.8 1.1l.5-2.3.8-2.8.2-1.3a5.072 5.072 0 0 1 .2-.9c.5-.5.7.1.7.1l-.4 5.1 1.6-4.6s.3-.6.6-.5c.3 0 .3.2.3.2l-.6 5.6 1.1-2.3s.3-.5.6-.5h.4l-3.1 9.4z" class="cls-32" data-name="Path 7090"/>
        </g>
        <g id="Group_13915" data-name="Group 13915">
            <g id="Group_13914" data-name="Group 13914">
                <path id="Path_7091" d="M443.3 276.8s-1.9.3-.8 10.4 4.9 24.8 4.9 24.8l-.4-23.6c-.1 0-.6-9-3.7-11.6z" class="cls-32" data-name="Path 7091"/>
                <path id="Path_7092" d="M445.9 304c.4 4.8-1.7 7.1-2.2 9a20.4 20.4 0 0 1-1.4 3.9c1.8-1.2 1.7-2.8 2.3-3.6.5-.8.3-.6.5 1.1.1 1-1.3 2.8-2.1 4.1a3.77 3.77 0 0 0-.7 1.8 21.081 21.081 0 0 0 2.6-3 25.963 25.963 0 0 0 2.7-5.1 22.251 22.251 0 0 0-.3-6.6c-.5-2.4-1.7-5-1.4-1.6z" class="cls-32" data-name="Path 7092"/>
            </g>
            <path id="Path_7093" d="M442.5 398.2l.6 13.3 8.3.7 3.7-.5-7.3-2.3-.8-11z" class="cls-32" data-name="Path 7093"/>
            <path id="Path_7094" d="M443.7 413.2l1.8.2.3-.5 6.9.1 3.3-.9s.1-.6-.2-.8c-.9-.5-4.5-.8-4.5-.8s.5.7.1 1-5 .1-6.1-.1a8.306 8.306 0 0 1-2.6-.8 9.408 9.408 0 0 0 1 2.6z" class="cls-27" data-name="Path 7094"/>
            <path id="Path_7095" d="M445 302l1.1 50.2 3.4 49.2-7.5.6s-7-49.6-7.9-53.9c-.8-4.3-9.7-38.7-5.6-47.5 4.3-8.8 16.5 1.4 16.5 1.4z" class="cls-34" data-name="Path 7095"/>
            <path id="Path_7096" d="M415.6 274.1c-4.2 5.1-6.3 25.9-6.3 25.9s1.4 8 9.1-18.8c2.3-8-1.8-8.3-2.8-7.1z" class="cls-32" data-name="Path 7096"/>
            <path id="Path_7097" d="M411 318l-1.8-1.9-1-1.9-.3-3.4a25.948 25.948 0 0 1 .7-5c.6-1.4.4-6.8.6-7.5s3.6-1.5 3.6-1.5-1.5 5.6-1.9 7.9.1 5.8 0 6.7a11.005 11.005 0 0 1-.8 2.8s-.1-2.4 0-3.1c0-.6-.7-.4-.7-.4a21.6 21.6 0 0 0 .1 4.3 5.389 5.389 0 0 0 .9 1.6z" class="cls-32" data-name="Path 7097"/>
            <path id="Path_7098" d="M438 262.4l2.7 28.3v1.6l8.1-.5s-2.3-21.8-2.7-22.9A86.073 86.073 0 0 1 445 257c.1-1.6-.2-9.9-5.6-9s-1.4 14.4-1.4 14.4z" class="cls-28" data-name="Path 7098"/>
            <path id="Path_7099" d="M420.5 262.4l-2.7 28.3v1.6l-8.1-.5c3.6-16.5 4.5-19.8 4.6-22.9 0-1.1.2-10.2.1-11.9a9.194 9.194 0 0 1 4.7-9c4.7-2.7 1.4 14.4 1.4 14.4z" class="cls-28" data-name="Path 7099"/>
            <path id="Path_7100" d="M429.2 396.7l-.1 17-7-2.5s-3-2.2-.4-1.9c3.8.4 3-1.2 3.1-4.2.1-3.1-.5-8.9-.5-8.9z" class="cls-32" data-name="Path 7100"/>
            <path id="Path_7101" d="M421.1 409.4s.8.7 1.6 1.3a21.718 21.718 0 0 0 4.1 1.9 10.148 10.148 0 0 0 2.3.1s.5 1.8-.6 1.6c-1.2-.1-7-2.7-7.9-3.3-.8-.5-.9-1.5.5-1.6z" class="cls-27" data-name="Path 7101"/>
            <path id="Path_7102" d="M427.7 303l.9 46 .8 48.8-5.9-.3s-6-49.1-6.5-53.5c-.5-4.3-7.7-33.2-2.9-41.7 4.8-8.4 13.6.7 13.6.7z" class="cls-34" data-name="Path 7102"/>
            <path id="Path_7103" d="M428.8 245.9s9.2.6 11.4 1.6c2.2.9 1.7 11.7.3 19.7s-.8 16.9 1.2 21.9 3.6 14.6 3.6 14.6l-32.4-.5s7.4-19.9 7.4-27.5c0-7.7-2-25.2-1.9-26.9.3-1.8 8.4-2.9 10.4-2.9z" class="cls-27" data-name="Path 7103"/>
            <path id="Path_7104" d="M442.7 242.8a13.632 13.632 0 0 1-3.1-9.2c0-1.7.1-2.3.2-4.8 0-.2.1-.5.1-.7v-3a8.066 8.066 0 0 0-8.1-8.1h-2a8.066 8.066 0 0 0-8.1 8.1v6.9a15.005 15.005 0 0 1-6.1 11.7 7.658 7.658 0 0 0 2.1 14.5 11.362 11.362 0 0 0 20.5 1.7 11.033 11.033 0 0 0 4.5-17.1z" class="cls-13" data-name="Path 7104"/>
        </g>
        <g id="Group_13923" data-name="Group 13923">
            <g id="Group_13916" data-name="Group 13916">
                <path id="Rectangle_5240" d="M0 0h1v125.8H0z" class="cls-8" data-name="Rectangle 5240" transform="rotate(-27.447 294.287 -1008.677)"/>
            </g>
            <g id="Group_13921" data-name="Group 13921">
                <g id="Group_13917" data-name="Group 13917">
                    <path id="Path_7106" d="M538.2 30.3s3.6 4.4-9.5 15.3-15 7.5-15 7.5l-3.5-2.5-1.7-12.6 6-1.1.6.8a2.346 2.346 0 0 0 2-.7c.7-.9 5-3.7 11.4-10.8 2.9-3.5 9 3.2 9.7 4.1z" class="cls-5" data-name="Path 7106"/>
                    <path id="Path_7107" d="M509.4 38.6s-12.2-.6-12.2-13.2c0-3.7-1.2-.2-2.2 3.4-1 3.5.4 13.6 6.6 17.9 6.2 4.2 8.9 5.3 11.6 3.8 2.7-1.6-3.8-11.9-3.8-11.9z" class="cls-32" data-name="Path 7107"/>
                    <path id="Path_7108" d="M518.7 41.1l-1.4-2.9-.6-1.1a2.828 2.828 0 0 1-1.7.4l1.4 1.9 1.2 2.6.5 3.9z" class="cls-8" data-name="Path 7108"/>
                </g>
                <path id="Path_7109" d="M573.5 45.9l-46 23.5 4 11.7a64.187 64.187 0 0 0 24.2-6.8c12.1-6.3 17.8-28.4 17.8-28.4z" class="cls-33" data-name="Path 7109"/>
                <path id="Path_7110" d="M563.6 58.6l16-14.3s-6.8-23.4-12.5-29.1c-7.2-7.2-21.2-8.3-28.2 0a115.533 115.533 0 0 1-11.6 12.1s.1 9.6 36.3 31.3z" class="cls-8" data-name="Path 7110"/>
                <path id="Path_7111" d="M516.9 6.7s6.2 13.8 10 13.7c.2 0 2.3-1.1 4-.8 1.6.3 2.2 1.4 2.8 1.6a4.709 4.709 0 0 1 .9.3 2.084 2.084 0 0 0 3-1.4c.1-1 1.1-3.3 1-4.1-.1-.5 0-1-.7-1.3-1.5-.8-3.8-2.5-4.3-3.5-1.4-3-1.3-10.1-8.2-10.4-1.9-.2-8.6 4.9-8.5 5.9z" class="cls-32" data-name="Path 7111"/>
                <path id="Path_7112" d="M536.9 21.2l3.2 1.9-.1-8.7-1.5-.3z" class="cls-5" data-name="Path 7112"/>
                <path id="Path_7113" d="M533.9 21.2l-.9-.9.9 2.2 2.9 2.5-.1-3.5z" class="cls-5" data-name="Path 7113"/>
                <path id="Path_7114" d="M526.8 20.2a14.221 14.221 0 0 0 .7-1.4 11.9 11.9 0 0 1 .9-1.5 13.167 13.167 0 0 0 2.2-2.5 33.67 33.67 0 0 0 1.9-4.3s.1 1.7.1 2.4a3.8 3.8 0 0 1-1 2.9c-2.3 3-2 3.1-2.4 3.4.2.1-.1.1-2.4 1z" class="cls-41" data-name="Path 7114"/>
                <path id="Path_7115" d="M520.2 12c.1.2.5 2.8.6 3.3s.1 1.1.3 1.2a2.934 2.934 0 0 0 1 .3c.3 0 1.3.3.8-.8a37.333 37.333 0 0 0-2.7-4z" class="cls-32" data-name="Path 7115"/>
                <path id="Path_7116" d="M525.4.1c-3.5-.5-8.1 2.8-9.6 7.9a2.783 2.783 0 0 0 2.1.7 7.009 7.009 0 0 1 3.9-5.1c3.5-1.5 2.2 1.4 3.4 1.8 1 .3 2 .5 2 .5l1.6 1.6.9-.4s-.7-2.2.1-1.9c.9.4 1.6 2 1.7 2.2s.3.6.4.6a20.832 20.832 0 0 0 1.9 3.1c.4-.2.6-1.1.1-2.4-1.1-3.3-4.2-8-8.5-8.6z" class="cls-33" data-name="Path 7116"/>
                <path id="Path_7117" d="M529.5 5a1.488 1.488 0 0 1 2.1.5 1.488 1.488 0 0 1-.5 2.1" class="cls-32" data-name="Path 7117"/>
                <path id="Path_7118" d="M523.4 15a8.924 8.924 0 0 0-1.9.7c-.1.1-.5.4-.4.6s.6.4 1.6.4c.2 0-.2-.3.7-1.7z" class="cls-41" data-name="Path 7118"/>
                <path id="Rectangle_5241" d="M0 0h5.4v8.3H0z" class="cls-49" data-name="Rectangle 5241" transform="rotate(-39.85 439.841 -733.71)"/>
                <path id="Rectangle_5242" d="M0 0h4.4v8.3H0z" class="cls-49" data-name="Rectangle 5242" transform="rotate(-22.333 563.28 -1312.028)"/>
                <path id="Path_7119" d="M583.4 116.3l-3 2.5-.8-.9-.5 2-7.7 6.4s-.9-1.4 4.1-5.9c1.3-1.2.7-3.7.7-3.7s.2-1.1 2.3-.6c.6.1 2.8-2.9 2.8-2.9a9.6 9.6 0 0 1 2.1 3.1z" class="cls-50" data-name="Path 7119"/>
                <path id="Path_7120" d="M548.5 119.4c-.9-8.9-1.8-27.3-3.2-32.7a83.657 83.657 0 0 0-6.4-16.6l-11-.5 14.7 51.7z" class="cls-33" data-name="Path 7120"/>
                <path id="Path_7121" d="M541.3 126.1l2.6.7 1-.6.9-1.9.6 1 3.4-2a8.109 8.109 0 0 0-1.6-3.3s-2.7 2.6-3.2 2.4c-2-.9-2.4.2-2.4.2s.1 2.6-1.3 3.5z" class="cls-50" data-name="Path 7121"/>
                <path id="Path_7122" d="M544.1 123.6a3.512 3.512 0 0 1-1.7 1.7c-6.5 1.9-6.2 3.5-6.2 3.5l8.7-2.2z" class="cls-50" data-name="Path 7122"/>
                <g id="Group_13920" data-name="Group 13920">
                    <path id="Path_7123" d="M548.3 23.4l-2.8 22.4 1.1 1.2-1.4.9 7.3 5.2 6.5-4.6 3.3-30.6s0-7-8.5-8c-6.4-.7-5.2 11.7-5.5 13.5z" class="cls-5" data-name="Path 7123"/>
                    <path id="Path_7124" d="M546.1 47.7l-23.4 13.5s1.1 1.8 2.7 1.7c4.2-.1 13.3-2.4 17.4-4.3a73.132 73.132 0 0 0 10.7-6.4z" class="cls-32" data-name="Path 7124"/>
                    <path id="Path_7125" d="M555.1 49s-5.9-1.5-9-2.5l.5.5-1.4.9 2.5 1.8 4 2 1.4-1.2-1-.9z" class="cls-8" data-name="Path 7125"/>
                    <g id="Group_13919" data-name="Group 13919">
                        <g id="Group_13918" data-name="Group 13918">
                            <path id="Path_7126" d="M527.3 62.8l-2.8 1.8a11.357 11.357 0 0 1-3.1 1.4c-1.8.5-3.1-.5-4-2.2a4.785 4.785 0 0 1-.6-2.7s1.6-1.8 3.3-.9c1.8.9 6.4.3 6.5 1.1a4.075 4.075 0 0 0 .7 1.5z" class="cls-32" data-name="Path 7126"/>
                            <path id="Path_7127" d="M517.4 60.3l-3.3 1.5-3 1.6.5.5 2.3-.8 4.2.5-.3-1.1z" class="cls-32" data-name="Path 7127"/>
                            <path id="Path_7128" d="M514.6 64.2l-2.1 2.2.4.6 2.5-1.7 3.1-.8-.7-2z" class="cls-32" data-name="Path 7128"/>
                            <path id="Path_7129" d="M513.9 67.9l1.6-1.8.9-1.4 1.7-.6 1.1 1.4-1.9.6-2.5 2z" class="cls-32" data-name="Path 7129"/>
                            <path id="Path_7130" d="M516 69.1l2.3-3.8 1.3-.3.8.9-1.7 1.3-1.9 1.8z" class="cls-32" data-name="Path 7130"/>
                        </g>
                        <path id="Path_7131" d="M528 60.3a4.413 4.413 0 0 1-3.6 0s-4.7-2.2-5.8-1.7a7.946 7.946 0 0 1-3.3.2s-1 .4.9 1.3a8.3 8.3 0 0 0 2.5.7s2.3 2.2 3.2 2.4c1.9.4 6.1-1.9 6.1-1.9s.3-1.1 0-1z" class="cls-32" data-name="Path 7131"/>
                    </g>
                </g>
                <path id="Path_7132" d="M579.5 43.7l-35.6 28.9 6.8 8.4s13.5-6 25.3-12.8c14.9-8.5 3.5-24.5 3.5-24.5z" class="cls-34" data-name="Path 7132"/>
                <path id="Path_7133" d="M580.1 111.2c-4.3-7.9-11.4-24.6-14.9-29a76.726 76.726 0 0 0-12.5-12.7l-10.3 3.9 32.9 41.9z" class="cls-34" data-name="Path 7133"/>
                <path id="Path_7134" d="M497.4 27.9l-8.3-6.7 6.1-4.7.3 2.2 3.1 1.1-1.3 5.2z" class="cls-32" data-name="Path 7134"/>
            </g>
            <g id="Group_13922" data-name="Group 13922">
                <path id="Rectangle_5243" d="M0 0h126.3v1H0z" class="cls-8" data-name="Rectangle 5243" transform="rotate(-74.34 322.88 -231.844)"/>
            </g>
            <path id="Rectangle_5244" d="M0 0h98.8v51.5H0z" class="cls-51" data-name="Rectangle 5244" transform="rotate(-5.309 1761.53 -4873.89)"/>
        </g>
        <g id="Group_13925" data-name="Group 13925">
            <path id="Rectangle_5245" d="M0 0h115.9v115.9H0z" class="cls-47" data-name="Rectangle 5245" transform="rotate(-5.266 1776.538 -4829.356)"/>
            <path id="Rectangle_5246" d="M0 0h103.6v103.6H0z" class="cls-15" data-name="Rectangle 5246" transform="rotate(-5.266 1839.817 -4898.728)"/>
            <path id="Path_7135" d="M498.5 176.5a9.189 9.189 0 1 1-10-8.3 9.138 9.138 0 0 1 10 8.3z" class="cls-47" data-name="Path 7135"/>
            <g id="Group_13924" data-name="Group 13924">
                <path id="Path_7136" d="M525.7 194.6l20 21 20 20.9-35.8 3.3-35.7 3.3 15.8-24.2z" class="cls-47" data-name="Path 7136"/>
                <path id="Path_7137" d="M493.4 211.2l14 14.7 14 14.7-25.1 2.3-25.1 2.3 11.1-17z" class="cls-47" data-name="Path 7137"/>
            </g>
        </g>
        <g id="Group_13936" data-name="Group 13936">
            <g id="Group_13931" data-name="Group 13931">
                <g id="Group_13930" data-name="Group 13930">
                    <g id="Group_13928" data-name="Group 13928">
                        <path id="Path_7138" d="M705.5 272.8l-15.6-14.3a2.991 2.991 0 0 0-.6 2.4 50.108 50.108 0 0 0 7.3 12 55.612 55.612 0 0 0 7.3 6.5z" class="cls-32" data-name="Path 7138"/>
                        <g id="Group_13927" data-name="Group 13927">
                            <g id="Group_13926" data-name="Group 13926">
                                <path id="Path_7139" d="M689.9 262.3l-2-1.7a9.814 9.814 0 0 1-1.8-2c-.8-1.3-.3-2.5.7-3.5a3.965 3.965 0 0 1 1.8-1.1s1.7.8 1.5 2.3 1.3 4.9.7 5.1a3.427 3.427 0 0 0-.9.9z" class="cls-32" data-name="Path 7139"/>
                                <path id="Path_7140" d="M689.4 254.4l-1.9-2.1-1.9-1.9-.3.5 1.2 1.6.6 3.2.8-.5z" class="cls-32" data-name="Path 7140"/>
                                <path id="Path_7141" d="M685.8 253.3l-2.1-1.2-.4.5 1.9 1.5 1.4 2.1 1.3-1z" class="cls-32" data-name="Path 7141"/>
                                <path id="Path_7142" d="M682.9 253.6l1.8.7 1.2.4.8 1.1-.8 1.1-.8-1.2-2.1-1.4z" class="cls-32" data-name="Path 7142"/>
                                <path id="Path_7143" d="M682.5 255.4l3.4.9.5.8-.5.8-1.3-.9-1.8-1z" class="cls-32" data-name="Path 7143"/>
                            </g>
                            <path id="Path_7144" d="M691.9 262.3a3.269 3.269 0 0 1-.8-2.7s.5-4-.1-4.7a7.472 7.472 0 0 1-1-2.4s-.5-.6-.7 1a7.228 7.228 0 0 0 .1 2 9.553 9.553 0 0 0-1 2.9c.2 1.5 2.8 4.1 2.8 4.1s.8-.1.7-.2z" class="cls-32" data-name="Path 7144"/>
                        </g>
                        <path id="Path_7145" d="M724.2 268.7l-17.3 3.2-.7 1.1-1-.8-2.2 6.7 5 3.8 23.6-4.8a14.051 14.051 0 0 0 6.9-9.2c1.3-4.9-12.9-.2-14.3 0z" class="cls-12" data-name="Path 7145"/>
                        <path id="Path_7146" d="M706.8 279.8s-.2-4.8-.3-7.3l-.3.5-1-.8-.7 2.3-.6 3.4 1.3.7.4-1z" class="cls-52" data-name="Path 7146"/>
                    </g>
                    <path id="Path_7147" d="M732.6 264c0 2.2.9 4.2 2.2 4.5 1.2.1 2.3.2 3.5.4 1.2 0 2.6-1.7 3-3.9.7-3.6 1.3-7.2 2-10.7.4-2.1 0-6.6-1.7-8.1a4.869 4.869 0 0 0-5.4-.6c-2 1.1-3.3 5.3-3.3 7.5-.2 3.6-.2 7.2-.3 10.9z" class="cls-41" data-name="Path 7147"/>
                    <path id="Path_7148" d="M731.7 412.8v2l11-.2.1-5.3-6.7-.1c.2 0-3.3 3.3-4.4 3.6z" class="cls-46" data-name="Path 7148"/>
                    <path id="Path_7149" d="M739.9 319.1s-5 32.8-10.7 47.3c-5 12.8-11.5-3.6-11.5-3.6l8.5-55.1 15.9-1.5c-.1 0 1 .3-2.2 12.9z" class="cls-33" data-name="Path 7149"/>
                    <path id="Path_7150" d="M729.5 309l-1.5 21.1 2.8 1.6s2.3 31.3 2.8 32.9c3.2 9 10.8 3.4 11.7.4 1-3 2.3-25.4 1.6-41.8l-.7-16.3z" class="cls-34" data-name="Path 7150"/>
                    <path id="Path_7151" d="M734.1 356.2s-1.2 5.6-.7 16.2c.3 6.7 1.3 24.4 2.8 37.5.1.8 6.7.1 6.7.1s3.1-42.9 3.3-51.2c-.1-2.5-7-8.6-12.1-2.6z" class="cls-34" data-name="Path 7151"/>
                    <path id="Path_7152" d="M731.9 265.4l10.3-2.3 5.3 6s3.9 5.3 4 17.1c.1 11.9-3.9 33.8-3.9 33.8l-23.6-7.6s1.1-41.6 7.9-47z" class="cls-11" data-name="Path 7152"/>
                    <path id="Path_7153" d="M732.9 265l1.8 5 9.3-4.8-1-2.8z" class="cls-12" data-name="Path 7153"/>
                    <path id="Path_7154" d="M732.5 263.8l.2 1.1-2.1 3v-2.5z" class="cls-12" data-name="Path 7154"/>
                    <path id="Path_7155" d="M720.3 362s1.9.6 7.7.6c5.8.1-6.5 47.4-6.5 47.4l-8.4-2.9 5-47.5z" class="cls-33" data-name="Path 7155"/>
                    <path id="Path_7156" d="M720.9 409.5l-.7 4.1-4.2.1s-3.2.1-3.9.1c-.8 0-5.5.1-5.5.1v-1.5s6.5-2.4 7.8-5c1.1-2.5 6.5 2.1 6.5 2.1z" class="cls-46" data-name="Path 7156"/>
                    <g id="Group_13929" data-name="Group 13929">
                        <path id="Path_7157" d="M735.9 243.1l-.2-2.5-1 .1-2.7.3-1.6.2a3.339 3.339 0 0 0-3 3.6l.2 2.5 1-.1 2.7-.3 1.6-.2a3.413 3.413 0 0 0 3-3.6z" class="cls-33" data-name="Path 7157"/>
                        <path id="Path_7158" d="M742.5 257.8a2.868 2.868 0 0 1-2.7 3.2l-6.7.6a2.858 2.858 0 0 1-3.2-2.6l-1.3-13.3a2.868 2.868 0 0 1 2.7-3.2l6.7-.6a2.869 2.869 0 0 1 3.2 2.7z" class="cls-32" data-name="Path 7158"/>
                        <path id="Path_7159" d="M735.8 240.5a3.4 3.4 0 0 1 2.9 1.2l1.1-.1a2.578 2.578 0 0 1 2.8 2.3l.6 6.3-1.8.2-.2-2.6a1.805 1.805 0 0 0-2-1.6l-1 .1-2.7.3-1.6.2a3.339 3.339 0 0 1-3.6-3l-.3-2.7z" class="cls-33" data-name="Path 7159"/>
                        <path id="Path_7160" d="M741.1 252.2a1.569 1.569 0 0 1 1.4-1.7h.1a1.569 1.569 0 0 1 1.7 1.4l.2 1.9a1.569 1.569 0 0 1-1.4 1.7h-.1a1.562 1.562 0 0 1-1.5-.8" class="cls-32" data-name="Path 7160"/>
                    </g>
                </g>
            </g>
            <g id="Group_13933" data-name="Group 13933">
                <path id="Rectangle_5247" d="M0 0h186.7v186.7H0z" class="cls-42" data-name="Rectangle 5247" transform="translate(520.5 230.1)"/>
                <path id="Rectangle_5248" d="M0 0h166.9v166.9H0z" class="cls-43" data-name="Rectangle 5248" transform="translate(530.3 240)"/>
                <path id="Path_7161" d="M592.1 291.4a14.9 14.9 0 1 1-14.9-14.9 14.937 14.937 0 0 1 14.9 14.9z" class="cls-42" data-name="Path 7161"/>
                <g id="Group_13932" data-name="Group 13932">
                    <path id="Path_7162" d="M633.1 324.5l28.9 36.6 29 36.5H575.3l28.9-36.5z" class="cls-42" data-name="Path 7162"/>
                    <path id="Path_7163" d="M578.8 346.3l20.3 25.7 20.3 25.6h-81.2l20.3-25.6z" class="cls-42" data-name="Path 7163"/>
                </g>
            </g>
            <g id="Group_13935" data-name="Group 13935">
                <path id="Path_7164" d="M722.7 296.3l-19.5.6s14.5 8.7 19.7 4.3-.2-4.9-.2-4.9z" class="cls-32" data-name="Path 7164"/>
                <path id="Path_7165" d="M744.7 268.6s4.6 2.3 2.4 9.1c-3.7 11.6-11.5 21.1-13 23s-6.6 6.5-10 5l-3.4-1.5-.2-7.7 2.3-.2 1.3-.3s4.7-7.5 8.7-14.8c3.8-7.3 11.9-12.6 11.9-12.6z" class="cls-12" data-name="Path 7165"/>
                <g id="Group_13934" data-name="Group 13934">
                    <path id="Path_7166" d="M705.3 297.1s.4-3.4-.3-4.1c-.6-.7-3.1-3.2-3.1-3.2l-.7-.6s-1 .5.7 2.1.5 1.3.5 1.3l-2-.9-2.6-.9-1.1-.5s-.6-.4-.8-.3a.373.373 0 0 0-.3.6l4.1 2.5-4.4-1.2s-.6-.1-.7.2.1.3.1.3l4.7 2.6-2.3-.3s-.6 0-.7.2a1.094 1.094 0 0 1-.2.4l8.7 2.6z" class="cls-32" data-name="Path 7166"/>
                    <path id="Path_7167" d="M699.3 293.9l-3.1-.6a2.814 2.814 0 0 0-1.1-.1.4.4 0 0 0-.3.5l4.6 1.5z" class="cls-32" data-name="Path 7167"/>
                </g>
            </g>
        </g>
    </g>
</svg>
